<svg xmlns="http://www.w3.org/2000/svg" viewBox="0 0 148.68 38.3"><g id="レイヤー_2" data-name="レイヤー 2"><g id="レイヤー_1-2" data-name="レイヤー 1"><path d="M14.14.28V14.12H12.32V3.8L7.72,14.12H6.44L1.82,3.78V14.12H0V.28H2L7.08,11.72,12.2.28Z"/><path d="M25.46,11H19.38l-1.12,3.1H16.34l5-13.86h2.1l5,13.86H26.58Zm-.52-1.48-2.52-7-2.52,7Z"/><path d="M40.46.18,35.92,8.86v5.26H34.1V8.86L29.54.18h2L35,7.24,38.44.18Z"/><path d="M50.62,11H44.54l-1.12,3.1H41.5l5-13.86h2.1l5,13.86H51.74ZM50.1,9.54l-2.52-7-2.52,7Z"/><path d="M63,.18V9a3.72,3.72,0,0,0,.91,2.76,4,4,0,0,0,5,0A3.72,3.72,0,0,0,69.84,9V.18h1.82V9a5.65,5.65,0,0,1-.7,2.93,4.47,4.47,0,0,1-1.89,1.77,6.44,6.44,0,0,1-5.34,0,4.39,4.39,0,0,1-1.88-1.77A5.75,5.75,0,0,1,61.16,9V.18Z"/><path d="M76.52,1.66V6.32H81.6v1.5H76.52v4.8H82.2v1.5H74.7V.16h7.5v1.5Z"/><path d="M99.1.28V14.12H97.28V3.8l-4.6,10.32H91.4L86.78,3.78V14.12H85V.28h2L92,11.72,97.16.28Z"/><path d="M110.42,11h-6.08l-1.12,3.1H101.3l5-13.86h2.1l5,13.86h-1.92Zm-.52-1.48-2.52-7-2.52,7Z"/><path d="M124.24.18V1.66h-3.8V14.12h-1.82V1.66H114.8V.18Z"/><path d="M128.43,13.77a4.1,4.1,0,0,1-1.71-1.36,3.48,3.48,0,0,1-.64-2H128a2.6,2.6,0,0,0,.81,1.65,2.88,2.88,0,0,0,2.07.67,3,3,0,0,0,2-.65,2.1,2.1,0,0,0,.75-1.67,1.91,1.91,0,0,0-.44-1.3,2.79,2.79,0,0,0-1.1-.76,17.76,17.76,0,0,0-1.78-.56,15.53,15.53,0,0,1-2.21-.72,3.59,3.59,0,0,1-1.42-1.13,3.33,3.33,0,0,1-.59-2.07,3.57,3.57,0,0,1,.58-2A3.77,3.77,0,0,1,128.37.48,5.73,5.73,0,0,1,130.78,0,5.05,5.05,0,0,1,134,1a3.64,3.64,0,0,1,1.41,2.6h-2a2.2,2.2,0,0,0-.84-1.41,3,3,0,0,0-2-.61,2.86,2.86,0,0,0-1.86.59A2,2,0,0,0,128,3.8,1.77,1.77,0,0,0,128.45,5a2.84,2.84,0,0,0,1.06.73,17.12,17.12,0,0,0,1.77.57,15.72,15.72,0,0,1,2.22.75,3.76,3.76,0,0,1,1.44,1.14,3.31,3.31,0,0,1,.6,2.09,3.67,3.67,0,0,1-.54,1.92,3.92,3.92,0,0,1-1.6,1.46,5.33,5.33,0,0,1-2.5.56A5.92,5.92,0,0,1,128.43,13.77Z"/><path d="M140,.18V9a3.72,3.72,0,0,0,.91,2.76,4,4,0,0,0,5,0A3.72,3.72,0,0,0,146.86,9V.18h1.82V9a5.65,5.65,0,0,1-.7,2.93,4.47,4.47,0,0,1-1.89,1.77,6.44,6.44,0,0,1-5.34,0,4.39,4.39,0,0,1-1.88-1.77A5.75,5.75,0,0,1,138.18,9V.18Z"/><path d="M8.13,31.15A5,5,0,0,1,4.5,32.3H1.82v5.82H0V24.18H4.5a5.11,5.11,0,0,1,3.59,1.14,3.83,3.83,0,0,1,1.23,2.94A3.87,3.87,0,0,1,8.13,31.15Zm-1.39-1a2.43,2.43,0,0,0,.72-1.88c0-1.72-1-2.58-3-2.58H1.82V30.8H4.5A3.24,3.24,0,0,0,6.74,30.14Z"/><path d="M13.57,37.6a5,5,0,0,1-2-2,6.15,6.15,0,0,1-.71-3,5.89,5.89,0,0,1,.73-3,5.05,5.05,0,0,1,2-2,6.11,6.11,0,0,1,5.64,0,5.09,5.09,0,0,1,2,2,6.39,6.39,0,0,1,0,6,5.24,5.24,0,0,1-2,2,5.78,5.78,0,0,1-2.84.7A5.56,5.56,0,0,1,13.57,37.6Zm4.63-1.36a3.54,3.54,0,0,0,1.39-1.38,5,5,0,0,0,0-4.48A3.45,3.45,0,0,0,18.24,29a3.8,3.8,0,0,0-1.82-.45,3.76,3.76,0,0,0-1.83.45,3.32,3.32,0,0,0-1.33,1.37,4.66,4.66,0,0,0-.5,2.24,4.72,4.72,0,0,0,.49,2.26,3.28,3.28,0,0,0,1.31,1.37,3.7,3.7,0,0,0,1.8.45A3.81,3.81,0,0,0,18.2,36.24Z"/><path d="M27.57,27.48A4.2,4.2,0,0,1,29.74,27v1.88h-.48q-3.06,0-3.06,3.32v6H24.38v-11H26.2v1.78A3.51,3.51,0,0,1,27.57,27.48Z"/><path d="M34.06,28.66v6.46a1.53,1.53,0,0,0,.34,1.13,1.68,1.68,0,0,0,1.18.33h1.34v1.54H35.28a3.26,3.26,0,0,1-2.28-.7,3,3,0,0,1-.76-2.3V28.66H30.82v-1.5h1.42V24.4h1.82v2.76h2.86v1.5Z"/><path d="M43.58,28.66h-2.3v9.46H39.46V28.66H38v-1.5h1.42v-.78a3.45,3.45,0,0,1,.95-2.69,4.48,4.48,0,0,1,3.05-.85v1.52a2.44,2.44,0,0,0-1.69.47,2.06,2.06,0,0,0-.49,1.55v.78h2.3Z"/><path d="M47.69,37.6a5,5,0,0,1-2-2,6.15,6.15,0,0,1-.71-3,5.89,5.89,0,0,1,.73-3,5.05,5.05,0,0,1,2-2,6.11,6.11,0,0,1,5.64,0,5.09,5.09,0,0,1,2,2,6.39,6.39,0,0,1,0,6,5.24,5.24,0,0,1-2,2,5.78,5.78,0,0,1-2.84.7A5.56,5.56,0,0,1,47.69,37.6Zm4.63-1.36a3.54,3.54,0,0,0,1.39-1.38,5,5,0,0,0,0-4.48A3.45,3.45,0,0,0,52.36,29a3.8,3.8,0,0,0-1.82-.45,3.76,3.76,0,0,0-1.83.45,3.32,3.32,0,0,0-1.33,1.37,4.66,4.66,0,0,0-.5,2.24,4.72,4.72,0,0,0,.49,2.26,3.28,3.28,0,0,0,1.31,1.37,3.7,3.7,0,0,0,1.8.45A3.81,3.81,0,0,0,52.32,36.24Z"/><path d="M61.69,27.48A4.2,4.2,0,0,1,63.86,27v1.88h-.48q-3.06,0-3.06,3.32v6H58.5v-11h1.82v1.78A3.51,3.51,0,0,1,61.69,27.48Z"/><path d="M66,25a1.24,1.24,0,0,1,.88-2.12,1.14,1.14,0,0,1,.85.36,1.28,1.28,0,0,1,0,1.76,1.14,1.14,0,0,1-.85.36A1.19,1.19,0,0,1,66,25Zm1.76,2.14v11H66v-11Z"/><path d="M72.87,37.6a5,5,0,0,1-2-2,6.15,6.15,0,0,1-.71-3,5.89,5.89,0,0,1,.73-3,5.05,5.05,0,0,1,2-2,6.11,6.11,0,0,1,5.64,0,5.09,5.09,0,0,1,2,2,6.39,6.39,0,0,1,0,6,5.24,5.24,0,0,1-2,2,5.78,5.78,0,0,1-2.84.7A5.56,5.56,0,0,1,72.87,37.6Zm4.63-1.36a3.54,3.54,0,0,0,1.39-1.38,5,5,0,0,0,0-4.48A3.45,3.45,0,0,0,77.54,29a3.8,3.8,0,0,0-1.82-.45,3.76,3.76,0,0,0-1.83.45,3.26,3.26,0,0,0-1.33,1.37,4.66,4.66,0,0,0-.5,2.24,4.72,4.72,0,0,0,.49,2.26,3.28,3.28,0,0,0,1.31,1.37,3.64,3.64,0,0,0,1.8.45A3.83,3.83,0,0,0,77.5,36.24Z"/></g></g></svg>