<svg xmlns="http://www.w3.org/2000/svg" width="159.68" height="38.3" viewBox="0 0 159.68 38.3"><defs><style>.a{fill:#fff5f0;opacity:0.8;}</style></defs><path class="a" d="M15.68-13.84V0H13.86V-10.32L9.26,0H7.98L3.36-10.34V0H1.54V-13.84H3.5L8.62-2.4l5.12-11.44ZM28-3.1H21.92L20.8,0H18.88l5.04-13.86h2.1L31.04,0H29.12Zm-.52-1.48-2.52-7.04L22.44-4.58ZM44-13.94,39.46-5.26V0H37.64V-5.26l-4.56-8.68H35.1l3.44,7.06,3.44-7.06ZM55.16-3.1H49.08L47.96,0H46.04l5.04-13.86h2.1L58.2,0H56.28Zm-.52-1.48-2.52-7.04L49.6-4.58Zm14.88-9.36v8.82a3.732,3.732,0,0,0,.91,2.76,3.442,3.442,0,0,0,2.53.9,3.414,3.414,0,0,0,2.51-.9,3.732,3.732,0,0,0,.91-2.76v-8.82H78.2v8.8a5.692,5.692,0,0,1-.7,2.93A4.394,4.394,0,0,1,75.61-.44a6.014,6.014,0,0,1-2.67.58,6.014,6.014,0,0,1-2.67-.58,4.334,4.334,0,0,1-1.88-1.77,5.758,5.758,0,0,1-.69-2.93v-8.8Zm14.54,1.48V-7.8h5.08v1.5H84.06v4.8h5.68V0h-7.5V-13.96h7.5v1.5Zm23.58-1.38V0h-1.82V-10.32L101.22,0H99.94L95.32-10.34V0H93.5V-13.84h1.96L100.58-2.4l5.12-11.44ZM119.96-3.1h-6.08L112.76,0h-1.92l5.04-13.86h2.1L123,0h-1.92Zm-.52-1.48-2.52-7.04L114.4-4.58Zm15.34-9.36v1.48h-3.8V0h-1.82V-12.46h-3.82v-1.48ZM142.44.14a5.962,5.962,0,0,1-2.47-.49,4.116,4.116,0,0,1-1.71-1.36,3.485,3.485,0,0,1-.64-2.01h1.94a2.555,2.555,0,0,0,.81,1.65,2.907,2.907,0,0,0,2.07.67,3.025,3.025,0,0,0,2.05-.65,2.109,2.109,0,0,0,.75-1.67,1.9,1.9,0,0,0-.44-1.3,2.811,2.811,0,0,0-1.1-.76,17.188,17.188,0,0,0-1.78-.56,15.676,15.676,0,0,1-2.21-.72,3.559,3.559,0,0,1-1.42-1.13,3.319,3.319,0,0,1-.59-2.07,3.587,3.587,0,0,1,.58-2.02,3.778,3.778,0,0,1,1.63-1.36,5.739,5.739,0,0,1,2.41-.48,5.048,5.048,0,0,1,3.21.98,3.62,3.62,0,0,1,1.41,2.6h-2a2.158,2.158,0,0,0-.84-1.41,2.984,2.984,0,0,0-1.96-.61,2.839,2.839,0,0,0-1.86.59,2.014,2.014,0,0,0-.72,1.65,1.788,1.788,0,0,0,.43,1.24,2.772,2.772,0,0,0,1.06.73q.63.25,1.77.57a16.624,16.624,0,0,1,2.22.75,3.7,3.7,0,0,1,1.44,1.14,3.315,3.315,0,0,1,.6,2.09,3.67,3.67,0,0,1-.54,1.92,3.969,3.969,0,0,1-1.6,1.46A5.28,5.28,0,0,1,142.44.14Zm10.1-14.08v8.82a3.732,3.732,0,0,0,.91,2.76,3.442,3.442,0,0,0,2.53.9,3.414,3.414,0,0,0,2.51-.9,3.732,3.732,0,0,0,.91-2.76v-8.82h1.82v8.8a5.692,5.692,0,0,1-.7,2.93,4.394,4.394,0,0,1-1.89,1.77,6.014,6.014,0,0,1-2.67.58,6.014,6.014,0,0,1-2.67-.58,4.335,4.335,0,0,1-1.88-1.77,5.758,5.758,0,0,1-.69-2.93v-8.8ZM10.86,14.14a3.851,3.851,0,0,1-1.19,2.89,5.047,5.047,0,0,1-3.63,1.15H3.36V24H1.54V10.06h4.5A5.1,5.1,0,0,1,9.63,11.2,3.827,3.827,0,0,1,10.86,14.14ZM6.04,16.68a3.235,3.235,0,0,0,2.24-.66A2.422,2.422,0,0,0,9,14.14q0-2.58-2.96-2.58H3.36v5.12Zm12.86,7.5a5.611,5.611,0,0,1-2.79-.7,4.983,4.983,0,0,1-1.96-1.99,6.1,6.1,0,0,1-.71-2.99,5.926,5.926,0,0,1,.73-2.97,5.03,5.03,0,0,1,1.99-1.98,6.108,6.108,0,0,1,5.64,0,5.048,5.048,0,0,1,1.99,1.97,5.911,5.911,0,0,1,.73,2.98,5.84,5.84,0,0,1-.75,2.99,5.2,5.2,0,0,1-2.03,1.99A5.821,5.821,0,0,1,18.9,24.18Zm0-1.6a3.843,3.843,0,0,0,1.84-.46,3.5,3.5,0,0,0,1.39-1.38,4.42,4.42,0,0,0,.53-2.24,4.489,4.489,0,0,0-.52-2.24,3.405,3.405,0,0,0-1.36-1.37,3.926,3.926,0,0,0-3.65,0,3.3,3.3,0,0,0-1.33,1.37,4.635,4.635,0,0,0-.5,2.24,4.759,4.759,0,0,0,.49,2.26,3.257,3.257,0,0,0,1.31,1.37A3.68,3.68,0,0,0,18.9,22.58Zm10.84-7.76a3.491,3.491,0,0,1,1.37-1.46,4.234,4.234,0,0,1,2.17-.52v1.88H32.8q-3.06,0-3.06,3.32V24H27.92V13.04h1.82Zm8.86-.28V21a1.537,1.537,0,0,0,.34,1.13,1.676,1.676,0,0,0,1.18.33h1.34V24H39.82a3.264,3.264,0,0,1-2.28-.7,3,3,0,0,1-.76-2.3V14.54H35.36v-1.5h1.42V10.28H38.6v2.76h2.86v1.5Zm10.52,0h-2.3V24H45V14.54H43.58v-1.5H45v-.78a3.438,3.438,0,0,1,.95-2.69A4.506,4.506,0,0,1,49,8.72v1.52a2.416,2.416,0,0,0-1.69.47,2.077,2.077,0,0,0-.49,1.55v.78h2.3Zm7.9,9.64a5.611,5.611,0,0,1-2.79-.7,4.983,4.983,0,0,1-1.96-1.99,6.1,6.1,0,0,1-.71-2.99,5.926,5.926,0,0,1,.73-2.97,5.03,5.03,0,0,1,1.99-1.98,6.108,6.108,0,0,1,5.64,0,5.048,5.048,0,0,1,1.99,1.97,5.911,5.911,0,0,1,.73,2.98,5.84,5.84,0,0,1-.75,2.99,5.2,5.2,0,0,1-2.03,1.99A5.821,5.821,0,0,1,57.02,24.18Zm0-1.6a3.843,3.843,0,0,0,1.84-.46,3.5,3.5,0,0,0,1.39-1.38,4.42,4.42,0,0,0,.53-2.24,4.489,4.489,0,0,0-.52-2.24,3.405,3.405,0,0,0-1.36-1.37,3.926,3.926,0,0,0-3.65,0,3.3,3.3,0,0,0-1.33,1.37,4.635,4.635,0,0,0-.5,2.24,4.76,4.76,0,0,0,.49,2.26,3.257,3.257,0,0,0,1.31,1.37A3.68,3.68,0,0,0,57.02,22.58Zm10.84-7.76a3.491,3.491,0,0,1,1.37-1.46,4.234,4.234,0,0,1,2.17-.52v1.88h-.48q-3.06,0-3.06,3.32V24H66.04V13.04h1.82Zm7.58-3.56a1.24,1.24,0,1,1,0-2.48,1.141,1.141,0,0,1,.85.36,1.281,1.281,0,0,1,0,1.76A1.141,1.141,0,0,1,75.44,11.26Zm.88,1.78V24H74.5V13.04ZM85.2,24.18a5.611,5.611,0,0,1-2.79-.7,4.983,4.983,0,0,1-1.96-1.99,6.1,6.1,0,0,1-.71-2.99,5.926,5.926,0,0,1,.73-2.97,5.03,5.03,0,0,1,1.99-1.98,6.108,6.108,0,0,1,5.64,0,5.048,5.048,0,0,1,1.99,1.97,5.911,5.911,0,0,1,.73,2.98,5.84,5.84,0,0,1-.75,2.99,5.2,5.2,0,0,1-2.03,1.99A5.821,5.821,0,0,1,85.2,24.18Zm0-1.6a3.843,3.843,0,0,0,1.84-.46,3.5,3.5,0,0,0,1.39-1.38,4.42,4.42,0,0,0,.53-2.24,4.489,4.489,0,0,0-.52-2.24,3.405,3.405,0,0,0-1.36-1.37,3.926,3.926,0,0,0-3.65,0,3.3,3.3,0,0,0-1.33,1.37,4.635,4.635,0,0,0-.5,2.24,4.759,4.759,0,0,0,.49,2.26,3.257,3.257,0,0,0,1.31,1.37A3.68,3.68,0,0,0,85.2,22.58Z" transform="translate(-1.54 14.12)"/></svg>