<?xml version="1.0" encoding="UTF-8"?><svg xmlns="http://www.w3.org/2000/svg" viewBox="0 0 1217.48 180.17"><defs><style>.d{stroke:#000;stroke-miterlimit:10;}</style></defs><g id="a"/><g id="b"><g id="c"><g><path class="d" d="M.5,176.33v-4.48H51.1v4.48H.5Zm17.02,0L118.95,.5h7.82l21.73,175.83h-27.94L105.84,31.67,22.69,176.33h-5.17Zm35.3-54.05v-4.49h76.36v4.49H52.82Zm41.29,54.05v-4.48h70.61v4.48H94.11Z"/><path class="d" d="M170.24,176.33v-4.48h21.73L230.04,8.32h-19.55V3.83h66.24c18.86,0,32.33,2.7,40.42,8.11,8.09,5.41,12.13,14.05,12.13,25.93,0,6.21-1.48,12.08-4.43,17.59-2.95,5.52-7.03,10.48-12.25,14.89-5.21,4.41-11.29,8.11-18.23,11.1-6.94,2.99-14.32,4.98-22.14,5.98,9.05,.69,16.91,2.36,23.58,5s11.81,6.38,15.41,11.21c3.6,4.83,5.4,10.89,5.4,18.17,0,8.59-1.94,16.25-5.81,23-3.87,6.75-9.18,12.48-15.93,17.19-6.75,4.71-14.53,8.28-23.35,10.69-8.82,2.42-18.21,3.62-28.17,3.62h-73.14Zm47.38-4.48h25.76c6.52,0,12.5-1.44,17.94-4.31,5.44-2.88,10.1-6.86,13.97-11.96,3.87-5.1,6.88-10.98,9.03-17.65,2.15-6.67,3.22-13.8,3.22-21.39,0-6.82-1.11-12.15-3.33-15.99-2.22-3.83-5.37-6.54-9.43-8.11-4.06-1.57-8.89-2.36-14.49-2.36h-28.06l1.04-4.6h26.22c4.37,0,9.04-1.09,14.03-3.28,4.98-2.19,9.68-5.44,14.09-9.77,4.41-4.33,7.99-9.68,10.75-16.04,2.76-6.36,4.14-13.76,4.14-22.2,0-5.14-.86-9.66-2.59-13.57-1.72-3.91-4.5-6.94-8.34-9.08-3.83-2.15-8.82-3.22-14.95-3.22h-20.82l-38.18,163.53Z"/><path class="d" d="M398.28,178.63c-18.09,0-32.24-5.48-42.44-16.44-10.2-10.96-15.29-25.8-15.29-44.5,0-12.8,1.76-24.99,5.29-36.57,3.53-11.58,8.4-22.21,14.61-31.91,6.21-9.7,13.43-18.11,21.68-25.24,8.24-7.13,17.06-12.65,26.45-16.56,9.39-3.91,18.96-5.86,28.69-5.86,11.27,0,21.26,2.47,29.96,7.42,8.7,4.94,15.5,11.98,20.41,21.1,4.91,9.12,7.36,19.93,7.36,32.43,0,16.02-2.61,31.05-7.82,45.08-5.21,14.03-12.32,26.37-21.33,37.03-9.01,10.66-19.32,19-30.94,25.01-11.62,6.02-23.82,9.03-36.63,9.03Zm0-4.14c7.13,0,13.76-1.9,19.89-5.69,6.13-3.79,11.73-8.97,16.79-15.52,5.06-6.55,9.54-14.11,13.46-22.65,3.91-8.55,7.21-17.58,9.89-27.08,2.68-9.51,4.71-19.11,6.1-28.81,1.38-9.7,2.07-18.99,2.07-27.89,0-4.75-.48-9.54-1.44-14.38-.96-4.83-2.55-9.26-4.77-13.28-2.22-4.02-5.21-7.28-8.97-9.77-3.76-2.49-8.43-3.74-14.03-3.74-6.75,0-13.09,1.9-19.03,5.69-5.94,3.79-11.44,8.97-16.5,15.52-5.06,6.55-9.6,14.09-13.63,22.6-4.03,8.51-7.46,17.54-10.29,27.08-2.84,9.55-4.98,19.17-6.44,28.87-1.46,9.7-2.19,18.99-2.19,27.89,0,7.9,.86,14.95,2.59,21.16s4.71,11.1,8.97,14.66c4.25,3.56,10.1,5.35,17.54,5.35Z"/><path class="d" d="M566.64,179.67c-12.5,0-22.94-2.07-31.34-6.21-8.4-4.14-14.2-10.37-17.42-18.69-3.22-8.32-3.38-18.76-.46-31.34L545.02,3.83h25.76l-27.6,117.3c-1.76,7.21-2.68,13.99-2.76,20.35-.08,6.36,.88,12.02,2.88,16.96,1.99,4.94,5.23,8.82,9.72,11.61,4.48,2.8,10.48,4.2,18,4.2,9.89,0,18.46-1.88,25.7-5.63,7.25-3.76,13.32-9.39,18.23-16.9,4.91-7.51,8.66-16.94,11.27-28.29L653.69,3.83h4.71l-27.71,119.6c-2.76,12.04-6.83,22.25-12.19,30.65-5.37,8.4-12.33,14.76-20.87,19.09-8.55,4.33-18.88,6.5-30.99,6.5ZM523.17,8.32V3.83h69.46v4.48h-69.46Zm107.75,0V3.83h46.8v4.48h-46.8Z"/><path class="d" d="M672.9,56.5l12.08-52.67h143.98l-12.08,52.67h-4.6c1.92-9.74,2.72-18.21,2.42-25.42-.31-7.21-2.42-12.8-6.32-16.79-3.91-3.99-10.24-5.98-18.98-5.98h-67.16c-6.59,0-12.29,1.15-17.08,3.45-4.79,2.3-8.89,5.58-12.3,9.83-3.41,4.25-6.37,9.31-8.86,15.18-2.49,5.87-4.7,12.44-6.61,19.72h-4.49Zm7.25,119.83v-4.48h76.25v4.48h-76.25Zm23.92,0L744.08,3.83h25.76l-40.02,172.5h-25.76Z"/><path class="d" d="M857.36,176.33v-4.48h38.07v4.48h-38.07Zm15.64,0L908.76,8.32h-16.79V3.83h22.2l-36.46,172.5h-4.71Zm66.01,2.3L911.87,3.83h25.88l22.31,137.08L1036.18,3.83h5.06l-97.17,174.8h-5.06Zm47.72-2.3v-4.48h60.15v4.48h-60.15Zm16.1,0L1039.63,3.83h39.45v4.48h-14.61l-36,168.02h-25.64Z"/><path class="d" d="M1052.4,176.33v-4.48h79.92c10.5,0,19.3-1.92,26.39-5.75,7.09-3.83,12.86-9.28,17.31-16.33,4.45-7.05,7.97-15.45,10.58-25.19h4.48l-11.96,51.75h-126.73Zm19.55,0L1111.97,3.83h25.64l-40.02,172.5h-25.65Zm129.38-125.35c1.61-8.2,1.78-15.52,.52-21.96s-4.25-11.5-8.97-15.18c-4.71-3.68-11.56-5.52-20.53-5.52h-81.08V3.83h125.58l-11.04,47.15h-4.49Zm-52.44,62.33c.77-5.14,.48-9.49-.86-13.05-1.34-3.57-3.53-6.27-6.55-8.11-3.03-1.84-6.73-2.76-11.1-2.76h-15.99v-4.48h15.99c4.37,0,8.59-.84,12.65-2.53,4.06-1.69,7.65-4.22,10.75-7.59,3.11-3.37,5.39-7.63,6.84-12.77h4.49l-11.73,51.29h-4.49Z"/></g></g></g></svg>