<?xml version="1.0" encoding="UTF-8"?><svg xmlns="http://www.w3.org/2000/svg" viewBox="0 0 1217.35 180.17"><defs><style>.d{fill:none;stroke:#fff5f0;stroke-linecap:round;stroke-linejoin:round;}</style></defs><g id="a"/><g id="b"><g id="c"><g><path class="d" d="M147.96,171.85h16.76v4.48h-16.21m-28.41-4.48h-25.99v4.48h54.54m-128.55-4.48L118.95,.5h7.82l21.19,171.35m-27.86,0l-5.04-49.57M25.27,171.85h25.83v4.48H22.7m-.05,0H.5v-4.48H20.1m33.66-49.57l-28.49,49.57m89.33-54.05H56.34m58.72,4.48H53.76m2.58-4.48L105.84,31.66l8.76,86.14"/><path class="d" d="M299.9,20.62c-1.72-3.91-4.5-6.94-8.33-9.08-3.84-2.15-8.82-3.22-14.95-3.22h-20.82l-18.01,77.16h21.69c4.37,0,9.05-1.09,14.03-3.28,4.98-2.18,9.68-5.44,14.09-9.77,4.41-4.33,7.99-9.68,10.75-16.04,2.76-6.37,4.14-13.76,4.14-22.2,0-5.13-.86-9.66-2.59-13.57Zm-15.69,79.93c-2.23-3.84-5.37-6.54-9.43-8.11-4.07-1.57-8.9-2.36-14.49-2.36h-23.58l-19.09,81.77h25.76c6.52,0,12.5-1.44,17.94-4.32,5.44-2.87,10.1-6.86,13.97-11.96,3.87-5.09,6.88-10.98,9.03-17.65,2.15-6.67,3.22-13.8,3.22-21.39,0-6.82-1.11-12.15-3.33-15.98Zm28.4-30.19c5.21-4.41,9.3-9.37,12.25-14.89,2.95-5.52,4.43-11.39,4.43-17.6,0-11.88-4.05-20.53-12.14-25.93-8.08-5.41-21.56-8.11-40.42-8.11h-66.24v4.49h19.55l-38.06,163.53h-21.74v4.48h73.14c9.97,0,19.36-1.21,28.18-3.62,8.81-2.42,16.59-5.98,23.34-10.7,6.75-4.71,12.06-10.44,15.93-17.19,3.87-6.74,5.81-14.41,5.81-23,0-7.28-1.81-13.34-5.41-18.17-3.6-4.83-8.74-8.57-15.41-11.21-6.67-2.65-14.53-4.31-23.57-5,7.82-1,15.19-2.99,22.13-5.98s13.02-6.69,18.23-11.1Z"/><path class="d" d="M487.64,30.05c-4.91-9.12-11.71-16.16-20.41-21.1-8.7-4.95-18.69-7.42-29.96-7.42-9.74,0-19.3,1.96-28.69,5.87-9.4,3.91-18.21,9.43-26.45,16.56-8.25,7.13-15.47,15.54-21.68,25.24-6.21,9.7-11.08,20.34-14.61,31.91-3.52,11.58-5.29,23.77-5.29,36.57,0,18.71,5.1,33.54,15.3,44.51,10.19,10.96,24.34,16.44,42.43,16.44,12.81,0,25.02-3.01,36.63-9.03,11.62-6.01,21.93-14.35,30.94-25.01,9.01-10.65,16.11-23,21.33-37.03,5.21-14.03,7.82-29.05,7.82-45.08,0-12.49-2.46-23.3-7.36-32.43Zm-23.23,44.68c-1.38,9.7-3.41,19.3-6.1,28.81-2.68,9.5-5.98,18.53-9.89,27.08-3.91,8.55-8.39,16.1-13.45,22.65-5.06,6.56-10.66,11.73-16.79,15.53-6.14,3.79-12.77,5.69-19.9,5.69s-13.28-1.78-17.53-5.35c-4.26-3.56-7.25-8.45-8.97-14.66-1.73-6.21-2.59-13.26-2.59-21.16,0-8.89,.73-18.19,2.18-27.89,1.46-9.69,3.61-19.32,6.44-28.86,2.84-9.55,6.27-18.57,10.3-27.08,4.02-8.51,8.56-16.05,13.62-22.6,5.06-6.56,10.56-11.73,16.51-15.53,5.94-3.79,12.28-5.69,19.03-5.69,5.59,0,10.27,1.25,14.03,3.74,3.76,2.49,6.74,5.75,8.97,9.77,2.22,4.03,3.81,8.46,4.77,13.29,.96,4.83,1.44,9.62,1.44,14.37,0,8.9-.69,18.19-2.07,27.89Z"/><path class="d" d="M652.67,8.32h-21.74V3.83h27.77m-.29,0h19.32v4.49h-20.36m-113.39,0l-26.56,115.11c-2.91,12.58-2.76,23.02,.46,31.34,3.22,8.32,9.03,14.55,17.43,18.69,8.39,4.14,18.84,6.21,31.33,6.21s22.45-2.17,31-6.5c8.54-4.33,15.5-10.7,20.87-19.09,5.36-8.4,9.43-18.61,12.19-30.65l26.67-115.11m-87.65,0l-26.54,112.81c-1.76,7.21-2.68,13.99-2.76,20.36-.07,6.36,.88,12.01,2.88,16.96,1.99,4.94,5.23,8.82,9.72,11.61,4.48,2.8,10.48,4.2,17.99,4.2,9.89,0,18.46-1.88,25.7-5.63,7.25-3.76,13.32-9.39,18.23-16.91,4.91-7.51,8.67-16.94,11.27-28.29l26.46-115.11m-77.02-4.49h16.98v4.49h-22.91m-25.74,0h-20.81V3.83h52.48"/><path class="d" d="M743.05,8.32h-20.81c-6.6,0-12.29,1.15-17.08,3.45s-8.9,5.57-12.31,9.83c-3.41,4.25-6.36,9.31-8.85,15.18-2.49,5.86-4.7,12.44-6.61,19.72h-4.49l12.08-52.67h143.67m-58.8,0h59.11l-12.08,52.67h-4.6c1.92-9.73,2.72-18.21,2.42-25.41-.31-7.21-2.42-12.81-6.33-16.79-3.91-3.99-10.72-6.39-18.97-5.98h-20.59m-37.94,163.53h25.52v4.48h-26.56m13.22-168.01l-37.94,163.53m0,0h-24.96v4.48h52.5M768.81,8.32l-37.94,163.53"/><path class="d" d="M912.84,10.1l-34.17,161.75m0,0h16.76v4.48h-17.71m8.93,0h-29.29v-4.48h16.59M912.84,10.1l26.17,168.53h5.06L1038.64,8.53m-9.2,163.32h17.44v4.48h-18.4m7.17,0h-48.92v-4.48h17.07m34.84-163.32l-34.84,163.32m-129.85,0L908.77,8.32h-16.79V3.83h19.89m.3,0h25.58l22.31,137.08L1036.19,3.83h3.45m-1.99,0h41.43v4.49h-14.6l-35.04,163.53"/><path class="d" d="M1110.93,8.32h-19.66V3.83h45.7m.64,0h79.24l-11.04,47.15h-4.49c1.61-8.2,1.79-15.52,.52-21.96-1.26-6.44-4.25-11.5-8.97-15.18-4.71-3.68-11.22-5.93-20.53-5.52h-35.77m-17.77,76.59h11.57c4.37,0,8.58-.85,12.65-2.53,4.06-1.69,7.65-4.22,10.75-7.59,3.11-3.38,5.39-7.63,6.84-12.77h4.49l-11.73,51.29h-4.49c.77-5.13,.48-9.49-.86-13.05-1.34-3.57-3.53-6.27-6.55-8.11-3.03-1.84-6.73-2.76-11.1-2.76h-12.61m18.81-81.07l-17.77,76.59m-1.04,4.48l-19.13,82.46m0,0h33.69c10.51,0,19.3-1.92,26.4-5.75,7.09-3.84,12.86-9.28,17.3-16.33,4.45-7.06,7.98-15.45,10.58-25.19h4.49l-11.96,51.75h-81.54m15.06,0h-60.25v-4.48h20.59m37.94-163.53l-37.94,163.53"/></g></g></g></svg>