<svg xmlns="http://www.w3.org/2000/svg" width="84" height="84" viewBox="0 0 84 84">
  <g id="グループ_200" data-name="グループ 200" transform="translate(-1268 -3929)">
    <path id="icon_pr" d="M22.039,20.061c0-.24.055-.42.354-.42,2.242-.113,5.536-.17,9-.17,9.707,0,13.918,5.455,13.918,12.439,0,9.114-6.426,13.029-14.343,13.029-1.326,0-1.79-.057-2.719-.057v13.8c0,.293-.11.407-.4.407h-5.4c-.3,0-.41-.113-.41-.407Zm6.206,19.071c.822.057,1.449.057,2.843.057,4.087,0,7.93-1.473,7.93-7.165,0-4.558-2.735-6.871-7.424-6.871-1.381,0-2.706.07-3.35.127Zm22.41-3.253c0-.42,0-1.486-.179-3.492,0-.293.042-.363.273-.477a35.5,35.5,0,0,1,12.8-2.482c.286,0,.41.057.41.35V35c0,.293-.094.35-.383.35a19.483,19.483,0,0,0-6.618.716V58.682c0,.293-.123.407-.41.407h-5.5c-.286,0-.4-.113-.4-.407Z" transform="translate(1267.002 3931.72)"/>
    <path id="パス_2" data-name="パス 2" d="M5,2A3,3,0,0,0,2,5V79a3,3,0,0,0,3,3H79a3,3,0,0,0,3-3V5a3,3,0,0,0-3-3H5M5,0H79a5,5,0,0,1,5,5V79a5,5,0,0,1-5,5H5a5,5,0,0,1-5-5V5A5,5,0,0,1,5,0Z" transform="translate(1268 3929)"/>
  </g>
</svg>
