<svg xmlns="http://www.w3.org/2000/svg" width="84" height="84" viewBox="0 0 84 84">
  <g id="グループ_67" data-name="グループ 67" transform="translate(-751 -4046)">
    <path id="パス_7" data-name="パス 7" d="M5,2A3,3,0,0,0,2,5V79a3,3,0,0,0,3,3H79a3,3,0,0,0,3-3V5a3,3,0,0,0-3-3H5M5,0H79a5,5,0,0,1,5,5V79a5,5,0,0,1-5,5H5a5,5,0,0,1-5-5V5A5,5,0,0,1,5,0Z" transform="translate(751 4046)"/>
    <text id="_" data-name="&lt;/&gt;
" transform="translate(761 4103)" font-size="40" font-family="AktivGrotesk-Light, Aktiv Grotesk" font-weight="300" letter-spacing="0.05em"><tspan x="0" y="0">&lt;/&gt;</tspan><tspan x="0" y="12"></tspan></text>
  </g>
</svg>
