<svg xmlns="http://www.w3.org/2000/svg" width="84" height="84" viewBox="0 0 84 84">
  <g id="グループ_198" data-name="グループ 198" transform="translate(-927 -3929)">
    <path id="icon_ill" d="M29.135,47.969,26.36,58.725c-.055.31-.165.363-.507.363h-5.14c-.354,0-.41-.113-.354-.52l9.938-35.7a11.253,11.253,0,0,0,.341-3c0-.24.123-.35.3-.35H38.27c.234,0,.354.057.41.35L49.822,58.626c.068.293,0,.463-.286.463h-5.77c-.3,0-.465-.07-.52-.31l-2.9-10.813H29.124ZM38.9,42.134c-.984-3.969-3.294-12.663-4.155-16.871h-.068c-.738,4.192-2.6,11.3-4.032,16.871ZM54.647,22.18a3.584,3.584,0,1,1,7.166,0,3.4,3.4,0,0,1-3.651,3.675,3.333,3.333,0,0,1-3.528-3.675Zm.4,8.161c0-.28.11-.393.4-.393h5.5c.315,0,.423.113.423.42V58.709c0,.293-.055.407-.41.407H55.534c-.354,0-.465-.17-.465-.463V30.339Z" transform="translate(927.923 3932.189)"/>
    <path id="パス_3" data-name="パス 3" d="M5,2A3,3,0,0,0,2,5V79a3,3,0,0,0,3,3H79a3,3,0,0,0,3-3V5a3,3,0,0,0-3-3H5M5,0H79a5,5,0,0,1,5,5V79a5,5,0,0,1-5,5H5a5,5,0,0,1-5-5V5A5,5,0,0,1,5,0Z" transform="translate(927 3929)"/>
  </g>
</svg>
