<svg xmlns="http://www.w3.org/2000/svg" width="80.834" height="77.869" viewBox="0 0 80.834 77.869"><g transform="translate(-0.272 -0.551)"><g transform="translate(0.272 0.551)"><path d="M5.4,11.792C-1.751,22.079-.86,35.459,4.6,46.39c.129.259.267.515.4.773.084.164.164.331.253.5l.162.283c.092.172.189.337.286.509.17.3.342.6.52.895.1.164.194.326.3.49.2.315.4.63.609.948.084.132.17.269.256.4.286.42.577.846.876,1.264.011.011.016.027.027.032.048.067.1.137.148.2.261.364.528.717.8,1.064.1.132.2.259.3.385.242.3.49.606.741.911.092.11.183.226.28.337.337.393.682.789,1.032,1.175l.022.022c.016.022.027.027.04.048.339.375.692.736,1.045,1.1.11.116.221.226.337.337.275.28.552.552.835.822.116.11.229.221.342.326.377.353.754.7,1.145,1.043a.027.027,0,0,0,.019.011c.065.062.135.116.2.172.342.294.69.59,1.043.878.143.116.286.226.431.342.283.226.574.453.865.679.156.116.307.232.463.353q.481.356.97.7c.121.089.237.172.356.253.035.022.065.049.1.067.31.216.628.42.948.625.135.089.269.183.4.275.49.3.981.612,1.479.905.137.078.275.154.41.232.369.21.736.415,1.11.62.2.11.41.21.614.315.267.137.525.28.795.41.059.032.124.062.183.089l.323.159c.415.2.838.393,1.261.585.089.043.175.078.267.116.485.216.973.42,1.468.612.119.054.237.094.358.143.458.178.921.353,1.385.515.057.022.116.038.172.057.509.178,1.027.348,1.547.507.124.038.248.078.375.11a13.469,13.469,0,0,0,1.6.453c34.612,6.31,44.66-20.8,44.66-20.8-8.439,11-23.428,13.9-37.63,10.672-.536-.121-1.059-.288-1.584-.447-.132-.038-.264-.078-.393-.121-.512-.154-1.021-.321-1.525-.5-.067-.027-.14-.048-.21-.073-.453-.164-.9-.326-1.347-.5-.124-.054-.251-.1-.375-.148-.49-.194-.973-.393-1.455-.606l-.288-.127c-.412-.189-.819-.38-1.226-.574-.119-.054-.234-.11-.356-.17-.315-.159-.63-.321-.948-.485-.21-.11-.423-.216-.63-.331-.385-.2-.763-.415-1.137-.636-.127-.067-.256-.137-.385-.21-.5-.294-.989-.6-1.479-.911-.135-.084-.267-.172-.4-.264-.353-.226-.706-.463-1.054-.7-.116-.078-.226-.164-.339-.237-.334-.237-.666-.48-.994-.722-.151-.11-.3-.221-.439-.337-.3-.226-.6-.458-.9-.7-.135-.105-.269-.216-.4-.321-.38-.31-.749-.62-1.118-.943-.04-.032-.081-.067-.124-.105-.4-.348-.789-.706-1.175-1.067-.121-.1-.229-.207-.337-.313-.286-.275-.569-.547-.846-.833-.11-.11-.221-.216-.331-.326-.35-.364-.7-.727-1.037-1.1-.016-.016-.032-.038-.051-.054-.358-.393-.709-.795-1.051-1.2l-.278-.326c-.256-.3-.509-.62-.757-.938-.092-.11-.186-.226-.278-.342-.3-.391-.59-.773-.873-1.164C7.52,31.719,4.685,16.889,10.99,4.708" transform="translate(-0.272 6.493)"/><path d="M12.866,7.873c-5.176,7.453-4.893,17.419-.857,25.3a32.495,32.495,0,0,0,2.29,3.821,17.963,17.963,0,0,0,2.662,3.322c.375.41.763.816,1.164,1.2.1.105.2.2.3.3.388.375.779.741,1.186,1.1a.363.363,0,0,0,.051.043c0,.005.005.005.011.011.447.393.913.773,1.385,1.148.105.078.21.164.315.248.474.364.954.717,1.447,1.059.016.011.03.022.043.032.221.154.442.288.663.436.105.067.2.143.313.2.353.226.711.447,1.072.657.054.032.1.057.154.089.313.178.63.358.951.531.11.062.226.116.337.172l.666.348a.8.8,0,0,0,.1.043c.455.226.916.442,1.388.647.1.043.2.084.3.127.375.159.754.315,1.137.458q.242.093.485.178c.348.132.7.248,1.045.364.159.054.313.105.472.154a11.235,11.235,0,0,0,1.509.436c26.723,4.427,32.89-16.142,32.89-16.142-5.561,8-16.331,11.828-27.82,8.843-.509-.137-1.016-.28-1.517-.436-.154-.048-.3-.1-.453-.148-.358-.116-.711-.237-1.062-.369-.162-.057-.318-.116-.477-.172-.385-.148-.763-.3-1.142-.463-.1-.043-.2-.084-.3-.127-.474-.2-.938-.426-1.4-.652-.237-.11-.469-.232-.7-.353-.132-.067-.269-.143-.4-.21-.3-.159-.593-.326-.884-.493-.07-.043-.143-.078-.213-.119-.361-.21-.717-.431-1.067-.652-.11-.073-.216-.148-.326-.216-.232-.154-.463-.3-.692-.463-.493-.337-.97-.7-1.444-1.054-.11-.089-.218-.172-.326-.259A32.235,32.235,0,0,1,15.213,21.267,24.155,24.155,0,0,1,17.1,1.905" transform="translate(14.482 1.743)"/><path d="M18.988,3.7a15.57,15.57,0,0,0-1.231,15.024A21.142,21.142,0,0,0,29.9,30.071c.221.084.442.159.663.232l.294.094c.313.094.625.21.954.275,14.754,2.853,18.753-7.574,19.82-9.11-3.511,5.052-9.4,6.262-16.627,4.505a18.177,18.177,0,0,1-1.746-.536,22.307,22.307,0,0,1-2.077-.862,21.467,21.467,0,0,1-3.643-2.22C21.073,17.539,17.05,8.176,21.272.551" transform="translate(27.041 -0.551)"/></g></g></svg>