<svg xmlns="http://www.w3.org/2000/svg" width="86" height="86" viewBox="0 0 86 86">
  <g transform="translate(-1056 -3628)">
    <path id="icons8-ワードプレス" d="M48,6A42,42,0,1,0,90,48,42,42,0,0,0,48,6Zm0,4.846A37.154,37.154,0,1,1,10.846,48,37.153,37.153,0,0,1,48,10.846Zm0,4.846A32.281,32.281,0,0,0,21.453,29.635c.468,0,.918-.006,1.322-.006,3.426,0,8.739-.407,8.739-.407a1.375,1.375,0,0,1,.2,2.742,36.875,36.875,0,0,1-3.774.4L39.857,68.508,47.006,46.58,41.942,32.367a34.269,34.269,0,0,1-3.477-.4,1.375,1.375,0,0,1,.2-2.742s5.424.407,8.639.407c3.426,0,8.739-.407,8.739-.407a1.375,1.375,0,0,1,.2,2.742,37.427,37.427,0,0,1-3.774.4L64.286,68.3l3.278-11.166a32.079,32.079,0,0,0,2.483-10.863,17.446,17.446,0,0,0-2.682-9.137c-1.651-2.754-3.177-5.165-3.177-7.919a5.726,5.726,0,0,1,4.72-5.805A32.148,32.148,0,0,0,48,15.692ZM76.847,33.534c.036.606.051,1.228.051,1.877a32.263,32.263,0,0,1-2.483,11.98L64.99,75.427A32.138,32.138,0,0,0,76.847,33.534ZM18.374,35.146A32.228,32.228,0,0,0,33.216,76.7ZM48.6,50.944,39.115,79.036a31.734,31.734,0,0,0,19.325-.492Z" transform="translate(1051 3623)"/>
    <path id="icons8-ワードプレス_-_アウトライン" data-name="icons8-ワードプレス - アウトライン" d="M48,5A43.011,43.011,0,0,1,64.738,87.62,43.011,43.011,0,0,1,31.262,8.38,42.73,42.73,0,0,1,48,5Zm0,84A41,41,0,1,0,7,48,41.046,41.046,0,0,0,48,89ZM48,9.846a38.038,38.038,0,1,1-14.852,3A37.918,37.918,0,0,1,48,9.846Zm0,74.308A36.154,36.154,0,1,0,11.846,48,36.195,36.195,0,0,0,48,84.154Zm0-69.462a32.986,32.986,0,0,1,11.681,2.123,33.34,33.34,0,0,1,9.876,5.836l1.69,1.439-2.2.312a4.739,4.739,0,0,0-3.861,4.815c0,2.353,1.3,4.523,2.812,7.035l.236.393a18.449,18.449,0,0,1,2.811,9.628,32.959,32.959,0,0,1-2.534,11.182L64.34,71.668,51.108,31.435l1.308-.067a36.735,36.735,0,0,0,3.659-.391l.043-.006a.353.353,0,0,0,.347-.417c-.021-.335-.25-.335-.326-.335h-.034c-.344.026-5.425.409-8.8.409-3.176,0-8.364-.384-8.7-.409h-.03c-.1,0-.32.039-.33.4-.01.333.189.345.284.35l.058,0,.058.01a33.527,33.527,0,0,0,3.361.39l.662.038,5.4,15.159-8.2,25.151L26.58,31.435l1.31-.066a36.041,36.041,0,0,0,3.658-.391l.045-.006a.353.353,0,0,0,.347-.417c-.021-.335-.25-.335-.326-.335H31.58c-.344.026-5.425.409-8.8.409l-.605,0c-.231,0-.472,0-.717,0H19.542l1.09-1.57A33.709,33.709,0,0,1,32.321,18.628,33.048,33.048,0,0,1,48,14.692Zm18.839,8.341a31.2,31.2,0,0,0-43.392,5.591c3.335-.045,7.942-.4,7.992-.4h.019c.052,0,.1,0,.156,0a2.29,2.29,0,0,1,2.322,2.213,2.346,2.346,0,0,1-2.076,2.521c-.168.028-1.222.2-2.567.32L39.852,65.3l6.1-18.7L41.22,33.318c-1.39-.115-2.607-.316-2.875-.361a2.257,2.257,0,0,1-2.1-2.4,2.33,2.33,0,0,1,2.329-2.338c.05,0,.1,0,.153,0h.017c.054,0,5.424.4,8.564.4,3.348,0,8.61-.4,8.663-.4h.019c.052,0,.1,0,.156,0a2.29,2.29,0,0,1,2.322,2.213,2.346,2.346,0,0,1-2.077,2.521c-.166.027-1.225.2-2.568.32L64.232,64.937l2.384-8.119.014-.036a31.127,31.127,0,0,0,2.418-10.507A16.411,16.411,0,0,0,66.5,37.641l-.215-.358c-1.593-2.652-3.1-5.157-3.1-8.065a7.167,7.167,0,0,1,1.523-4.433A6.44,6.44,0,0,1,66.839,23.033Zm-48.373,9.4,16.546,46.32-2.256-1.167A33.568,33.568,0,0,1,19.709,65.542a33.165,33.165,0,0,1-2.251-30.8Zm12.9,42.057L18.336,38.013A31.223,31.223,0,0,0,31.365,74.488Zm46.375-41.4a33.032,33.032,0,0,1-.781,31.327A33.7,33.7,0,0,1,65.518,76.276l-2.362,1.469L73.483,47.027A31.3,31.3,0,0,0,75.9,35.411c0-.664-.016-1.258-.049-1.819ZM66.891,72.91A31.083,31.083,0,0,0,79.308,48a30.71,30.71,0,0,0-1.557-9.691,35.6,35.6,0,0,1-2.4,9.423ZM48.57,47.894,59.722,79.162l-.958.328A32.734,32.734,0,0,1,38.84,80l-1.007-.289Zm8.583,30.018-8.53-23.918L40.4,78.348a30.629,30.629,0,0,0,16.75-.436Z" transform="translate(1051 3623)" fill="#fff5f0"/>
  </g>
</svg>
