<svg xmlns="http://www.w3.org/2000/svg" width="84" height="84" viewBox="0 0 84 84">
  <g id="グループ_196" data-name="グループ 196" transform="translate(-1262 -3702)">
    <path id="icon_xd" d="M33.209,39.708l9.8,19.31c.178.293.071.573-.207.573h-6.1a.66.66,0,0,1-.724-.463c-2.239-4.739-4.525-9.478-6.864-14.569h-.066c-2.108,4.806-4.418,9.873-6.659,14.612a.652.652,0,0,1-.627.39H16c-.354,0-.381-.293-.2-.5l9.584-18.737L16.108,21.365c-.22-.293,0-.506.2-.506h6.016c.354,0,.493.073.63.39,2.213,4.741,4.441,9.62,6.549,14.4h.066c2.037-4.739,4.281-9.661,6.439-14.359.178-.293.286-.477.63-.477h5.63c.286,0,.4.226.22.506Zm11.523,5.848c0-8.357,5.415-14.895,14.028-14.895a14.9,14.9,0,0,1,1.819.073V21.227a.356.356,0,0,1,.354-.366h5.523c.286,0,.357.11.357.28V54.111a25.437,25.437,0,0,0,.178,3.5c0,.226-.071.293-.286.409A20.476,20.476,0,0,1,57.75,60.1c-7.6.04-13.017-4.768-13.017-14.542ZM60.582,36.37a5.272,5.272,0,0,0-2.026-.363c-4.412,0-7.489,3.489-7.489,9.27,0,6.6,3.142,9.254,7.108,9.254a6.286,6.286,0,0,0,2.407-.39Z" transform="translate(1262.661 3703.543)"/>
    <path id="パス_1" data-name="パス 1" d="M5,2A3,3,0,0,0,2,5V79a3,3,0,0,0,3,3H79a3,3,0,0,0,3-3V5a3,3,0,0,0-3-3H5M5,0H79a5,5,0,0,1,5,5V79a5,5,0,0,1-5,5H5a5,5,0,0,1-5-5V5A5,5,0,0,1,5,0Z" transform="translate(1262 3702)"/>
  </g>
</svg>
