<svg xmlns="http://www.w3.org/2000/svg" width="85" height="85" viewBox="0 0 85 85">
  <g transform="translate(-1405.5 -3628.5)">
    <path id="icons8-git" d="M44,5.652a3.813,3.813,0,0,1,2.732,1.134L81.214,41.268a3.858,3.858,0,0,1,0,5.464L46.732,81.214a3.858,3.858,0,0,1-5.464,0L6.786,46.732a3.858,3.858,0,0,1,0-5.464l22.5-22.5,4.151,4.151a10.919,10.919,0,0,0,2.818,10.564,10.769,10.769,0,0,0,2.268,1.726V52.8a10.957,10.957,0,1,0,10.957,0V38.964L51.7,41.182a10.981,10.981,0,1,0,7.747-7.747l-4.879-4.879A10.912,10.912,0,0,0,41.182,15.175l-4.151-4.151,4.237-4.237A3.813,3.813,0,0,1,44,5.652M44,2a7.474,7.474,0,0,0-5.314,2.2l-6.819,6.819,8.439,8.439a7.4,7.4,0,0,1,3.731-1.013A7.262,7.262,0,0,1,50.27,29.427l8.3,8.3A7.4,7.4,0,0,1,62.3,36.71a7.226,7.226,0,0,1,5.129,2.126,7.3,7.3,0,1,1-11.434,1.469l-8.3-8.3a7.088,7.088,0,0,1-1.869.77V55.213a7.3,7.3,0,1,1-3.652,0V32.78A7.219,7.219,0,0,1,37.73,22.051l-8.446-8.446L4.2,38.686a7.509,7.509,0,0,0,0,10.629L38.686,83.8a7.509,7.509,0,0,0,10.629,0L83.8,49.314a7.509,7.509,0,0,0,0-10.629L49.314,4.2A7.474,7.474,0,0,0,44,2Z" transform="translate(1404 3627)"/>
    <path id="icons8-git_-_アウトライン" data-name="icons8-git - アウトライン" d="M44,1.5a7.941,7.941,0,0,1,5.669,2.351L84.15,38.332a8.009,8.009,0,0,1,0,11.336L49.668,84.15a8.009,8.009,0,0,1-11.337,0L3.851,49.668a8.009,8.009,0,0,1,0-11.336L29.284,12.9l9.073,9.073-.2.334a6.784,6.784,0,0,0,1.028,8.245A6.678,6.678,0,0,0,42.3,32.3l.375.1V55.6l-.375.1a6.8,6.8,0,1,0,3.4,0l-.375-.1V32.39l.377-.1a6.6,6.6,0,0,0,1.737-.716l.334-.2,8.843,8.843-.2.333a6.789,6.789,0,1,0,10.65-1.369A6.709,6.709,0,0,0,62.3,37.21a6.907,6.907,0,0,0-3.478.945l-.333.194-8.842-8.842.2-.334a6.784,6.784,0,0,0-1.028-8.245,6.709,6.709,0,0,0-4.775-1.979,6.907,6.907,0,0,0-3.478.945l-.333.194-9.065-9.065,7.173-7.173A7.94,7.94,0,0,1,44,1.5Zm0,84a6.948,6.948,0,0,0,4.96-2.057L83.442,48.961a7.009,7.009,0,0,0,0-9.921L48.961,4.558a7.009,7.009,0,0,0-9.921,0l-6.466,6.467,7.819,7.819a7.9,7.9,0,0,1,3.643-.894,7.7,7.7,0,0,1,5.482,2.272A7.782,7.782,0,0,1,50.89,29.34L58.654,37.1A7.9,7.9,0,0,1,62.3,36.21a7.7,7.7,0,0,1,5.482,2.272,7.8,7.8,0,1,1-12.408,1.91L47.608,32.63a7.6,7.6,0,0,1-1.282.529V54.836a7.8,7.8,0,1,1-4.652,0V33.158a7.6,7.6,0,0,1-3.192-1.9,7.782,7.782,0,0,1-1.372-9.119l-7.825-7.825L4.558,39.039a7.009,7.009,0,0,0,0,9.921L39.039,83.442A6.948,6.948,0,0,0,44,85.5ZM44,5.152a4.312,4.312,0,0,1,3.087,1.282l34.48,34.48a4.358,4.358,0,0,1,0,6.172L47.086,81.567a4.358,4.358,0,0,1-6.173,0L6.433,47.086a4.358,4.358,0,0,1,0-6.172L29.284,18.063l4.709,4.709-.075.279a10.45,10.45,0,0,0,2.688,10.081,10.28,10.28,0,0,0,2.163,1.646l.252.144V53.084l-.25.144a10.457,10.457,0,1,0,10.457,0l-.25-.144V37.757l3.276,3.276-.075.279a10.446,10.446,0,1,0,17.475-4.705A10.338,10.338,0,0,0,62.3,33.558a10.481,10.481,0,0,0-2.723.361l-.279.075-5.288-5.288.075-.279a10.45,10.45,0,0,0-2.688-10.081A10.338,10.338,0,0,0,44.036,15.3a10.479,10.479,0,0,0-2.723.361l-.279.075-4.709-4.709,4.591-4.591A4.31,4.31,0,0,1,44,5.152Zm0,76.7a3.318,3.318,0,0,0,2.377-.986L80.86,46.378a3.358,3.358,0,0,0,0-4.756L46.378,7.14a3.358,3.358,0,0,0-4.755,0l-3.885,3.885,3.6,3.6a11.474,11.474,0,0,1,2.7-.323,11.408,11.408,0,0,1,11.032,8.514,11.471,11.471,0,0,1,.052,5.594L59.6,32.881a11.475,11.475,0,0,1,2.7-.323A11.331,11.331,0,0,1,70.361,35.9a11.461,11.461,0,1,1-19.219,5.435l-1.163-1.163v12.34a11.457,11.457,0,1,1-11.957,0V35.5A11.229,11.229,0,0,1,35.9,33.839a11.419,11.419,0,0,1-3.019-10.766l-3.6-3.6L7.14,41.622a3.358,3.358,0,0,0,0,4.756L41.622,80.86A3.32,3.32,0,0,0,44,81.848Z" transform="translate(1404 3627)" fill="#fff5f0"/>
  </g>
</svg>
