<svg xmlns="http://www.w3.org/2000/svg" width="84" height="84" viewBox="0 0 84 84">
  <g id="グループ_197" data-name="グループ 197" transform="translate(-560 -3929)">
    <path id="icon_ps" d="M20.3,20.075c0-.24.494-.42.78-.42,2.255-.113,5.565-.183,9.025-.183,9.707,0,13.479,5.455,13.479,12.439,0,9.13-6.452,13.042-14.356,13.042-1.339,0-1.79-.07-2.72-.07v13.8c0,.293-.11.42-.4.42H20.7c-.286,0-.4-.113-.4-.407ZM26.51,39.148c.806.057,1.449.057,2.843.057,4.087,0,7.943-1.486,7.943-7.165,0-4.558-2.762-6.871-7.437-6.871-1.381,0-2.706.057-3.35.113ZM56.642,34.87c-2.775,0-3.7,1.43-3.7,2.609,0,1.3.63,2.189,4.334,4.152,5.484,2.736,7.219,5.328,7.219,9.184,0,5.735-4.279,8.821-10.049,8.821a15.03,15.03,0,0,1-7.177-1.543c-.218-.113-.273-.293-.273-.59V52.231c0-.35.165-.477.4-.293a12.631,12.631,0,0,0,7.04,2.132c2.775,0,3.924-1.179,3.924-2.789,0-1.3-.806-2.426-4.321-4.319-4.977-2.439-7.056-4.922-7.056-9.074,0-4.628,3.528-8.471,9.639-8.471a16.309,16.309,0,0,1,6.29,1,.792.792,0,0,1,.341.716v4.922c0,.293-.179.477-.52.35a12.4,12.4,0,0,0-6.1-1.543Z" transform="translate(559.604 3931.446)"/>
    <path id="パス_4" data-name="パス 4" d="M5,2A3,3,0,0,0,2,5V79a3,3,0,0,0,3,3H79a3,3,0,0,0,3-3V5a3,3,0,0,0-3-3H5M5,0H79a5,5,0,0,1,5,5V79a5,5,0,0,1-5,5H5a5,5,0,0,1-5-5V5A5,5,0,0,1,5,0Z" transform="translate(560 3929)"/>
  </g>
</svg>
