<svg xmlns="http://www.w3.org/2000/svg" width="84" height="84" viewBox="0 0 84 84">
  <g id="グループ_195" data-name="グループ 195" transform="translate(-927 -3706)">
    <path id="icons8-javascript" d="M42,42V67.148C42,71.008,40.539,72,38,72c-2.656,0-4.5-1.656-5.719-3.8L26,72a14.041,14.041,0,0,0,12.469,8C45.313,80,50,76.359,50,68.367V42Zm24.906,0c-6.812,0-11.18,4.359-11.18,10.086,0,6.211,3.664,9.148,9.172,11.492l1.906.82c3.477,1.523,5.2,2.453,5.2,5.07,0,2.18-1.656,3.758-4.82,3.758-3.766,0-5.547-2.555-7.18-5.227l-6,4c2.242,4.43,6.266,8,13.352,8C74.6,80,80,76.234,80,69.367c0-6.375-3.656-9.211-10.148-11.992l-1.906-.812c-3.274-1.422-4.7-2.344-4.7-4.633,0-1.851,1.422-3.273,3.656-3.273,2.2,0,3.6.93,4.906,3.273l5.945-3.812C75.25,43.688,71.758,42,66.906,42Z" transform="translate(923 3702)"/>
    <path id="パス_5" data-name="パス 5" d="M5,2A3,3,0,0,0,2,5V79a3,3,0,0,0,3,3H79a3,3,0,0,0,3-3V5a3,3,0,0,0-3-3H5M5,0H79a5,5,0,0,1,5,5V79a5,5,0,0,1-5,5H5a5,5,0,0,1-5-5V5A5,5,0,0,1,5,0Z" transform="translate(927 3706)"/>
  </g>
</svg>
