<?xml version="1.0" encoding="UTF-8"?><svg xmlns="http://www.w3.org/2000/svg" viewBox="0 0 1561.38 178.64"><defs><style>.d{fill:none;stroke:#fff5f0;stroke-linecap:round;stroke-linejoin:round;stroke-width:.5px;}</style></defs><g id="a"/><g id="b"><g id="c"><g><path class="d" d="M63.63,7.04L26.57,170.57m25.65,0h25.54v4.48h-26.56m.35,0H.25v-4.48H26.57M89.28,7.04L52.22,170.57M63.63,7.04h-25.43V2.55h57.05m-.5,0h20.96V7.04h-26.43"/><path class="d" d="M112.92,170.57h25.68v4.48h-26.68M149.36,7.9l-36.44,162.67m-4.71,0h-22.74v4.48h27.28M149.36,7.9l67.78,169.45h6.56L262.47,7.04M153.75,2.55h24.41l50.94,129.84L257.74,7.04M108.21,170.57L145.04,7.04h-22.77V2.55h31.29m104.18,4.49h-26.57V2.55h33.08m0,0h21.32V7.04h-23.1"/><path class="d" d="M350.65,7.04h-20.81c-6.59,0-12.29,1.15-17.08,3.45s-8.89,5.57-12.3,9.83c-3.42,4.25-6.37,9.31-8.86,15.18-2.49,5.86-4.69,12.44-6.61,19.72h-4.49l12.08-52.67h84.67m.2,0h59.11l-12.07,52.67h-4.61c1.92-9.73,2.73-18.21,2.42-25.41-.31-7.21-2.42-12.81-6.32-16.79-3.91-3.99-10.24-5.98-18.98-5.98h-20.59m0,0l-37.94,163.53m0,0h25.53v4.48h-26.57m1.82,0h-51.5v-4.48h24.96M350.65,7.04l-37.94,163.53"/><path class="d" d="M547.25,2.55h20.18l-11.04,47.15h-4.49c1.61-8.2,1.79-15.52,.52-21.96-1.26-6.44-4.25-11.5-8.97-15.18-4.71-3.68-11.2-5.93-20.53-5.52h-35.77m-25.64,0h-19.66V2.55h105.4m-77.87,81.08h11.57c4.37,0,8.59-.85,12.65-2.53,4.06-1.69,7.65-4.22,10.75-7.59,3.11-3.38,5.39-7.63,6.84-12.77h4.49l-11.73,51.29h-4.49c.77-5.13,.48-9.49-.86-13.05-1.34-3.57-3.53-6.27-6.55-8.11-3.03-1.84-6.73-2.76-11.1-2.76h-12.61M487.15,7.04l-17.77,76.59m-20.17,86.94h33.69c10.51,0,19.3-1.92,26.4-5.75,7.09-3.84,12.86-9.28,17.3-16.33,4.45-7.06,7.98-15.45,10.58-25.19h4.49l-11.96,51.75h-81.54m.08,0h-45.27v-4.48h20.59M461.51,7.04l-37.94,163.53m44.77-82.46l-19.13,82.46"/><path class="d" d="M602.95,7.04h-24.02V2.55h50.32m.39,0h28.64c10.04,0,18.84,1.11,26.39,3.34,7.55,2.22,13.46,5.86,17.71,10.92s6.38,11.81,6.38,20.24c0,10.74-2.91,19.8-8.74,27.2-5.82,7.4-14.2,13.03-25.13,16.9-9.03,3.21-19.59,5.08-31.7,5.63m0,0c7.09,.63,12.96,2.01,17.62,4.15,6.59,3.03,11.4,7.05,14.43,12.07,3.03,5.03,4.89,10.53,5.58,16.51s.84,11.96,.46,17.94c-.39,5.98-.69,11.46-.92,16.44-.23,4.99,.27,9.01,1.49,12.08,1.23,3.06,3.8,4.6,7.71,4.6,2.3,0,4.33-.29,6.09-.87,1.77-.57,3.53-1.2,5.29-1.89l1.38,4.6c-4.14,1.53-7.78,2.57-10.92,3.1-3.15,.54-6.94,.81-11.39,.81-7.05,0-12.47-1.23-16.27-3.68-3.79-2.46-6.44-5.77-7.94-9.95-1.49-4.18-2.3-8.86-2.41-14.03-.11-5.18,0-10.52,.35-16.04,.34-5.52,.46-10.89,.34-16.1-.12-5.22-.94-9.91-2.47-14.09-1.54-4.18-4.18-7.49-7.94-9.95-3.75-2.45-9.16-3.68-16.21-3.68h-17.88m19.02-81.76h27.38c5.44,0,9.75,.84,12.94,2.53,3.18,1.68,5.55,3.87,7.12,6.55,1.58,2.69,2.63,5.6,3.17,8.74,.53,3.15,.8,6.1,.8,8.86,0,4.44-.59,9.02-1.78,13.74-1.19,4.71-2.99,9.26-5.4,13.63-2.42,4.37-5.47,8.28-9.15,11.73-3.68,3.45-8.01,6.21-12.99,8.28-4.99,2.07-10.62,3.1-16.91,3.1h-23.13m17.95-77.16l-17.95,77.16m-1.07,4.6l-19.03,81.77m12.4-163.53l-38.27,163.53m25.87,0h24.03v4.48h-25.07m-.26,0h-48.27v-4.48h23.7"/><path class="d" d="M765.79,7.04h-19.66V2.55h46.12m.23,0h79.23l-11.04,47.15h-4.48c1.61-8.2,1.78-15.52,.52-21.96-1.27-6.44-4.26-11.5-8.97-15.18-4.72-3.68-11.49-5.93-20.53-5.52h-35.77m0,0l-17.77,76.59m0,0h11.56c4.37,0,8.59-.85,12.65-2.53,4.07-1.69,7.65-4.22,10.76-7.59,3.1-3.38,5.38-7.63,6.84-12.77h4.48l-11.73,51.29h-4.48c.76-5.13,.48-9.49-.86-13.05-1.35-3.57-3.53-6.27-6.56-8.11s-6.73-2.76-11.1-2.76h-12.6m0,0l-19.13,82.46m0,0h33.69c10.5,0,19.3-1.92,26.39-5.75,7.09-3.84,12.86-9.28,17.31-16.33,4.44-7.06,7.97-15.45,10.58-25.19h4.48l-11.96,51.75h-81.53m-.21,0h-44.99v-4.48h20.59M765.79,7.04l-37.94,163.53"/><path class="d" d="M979.47,48.78h4.48L994.65,.25h-3.91l-17.43,15.48m-104.11,145.17l-17.61,16.45h-3.91l11.27-49.22h4.48m5.77,32.77c.69,.95,1.41,1.88,2.17,2.77,3.91,4.6,8.99,8.2,15.24,10.81,6.24,2.6,13.85,3.91,22.82,3.91s16.7-1.38,24.32-4.14c7.63-2.76,14.4-6.65,20.3-11.68,5.91-5.02,10.53-10.94,13.86-17.76,3.34-6.83,5-14.22,5-22.2,0-8.74-1.28-16.06-3.85-21.96-2.57-5.91-5.96-10.81-10.18-14.72-4.21-3.91-8.85-7.23-13.91-9.95s-10.12-5.23-15.18-7.53-9.7-4.83-13.92-7.59c-4.21-2.76-7.61-6.1-10.17-10.01-2.57-3.91-3.86-8.85-3.86-14.83s1.82-11.62,5.46-16.22c3.65-4.6,8.28-8.2,13.92-10.81,5.64-2.6,11.36-3.91,17.19-3.91,8.74,0,16.1,1.75,22.08,5.23,5.98,3.49,10.54,8.5,13.69,15.01,3.14,6.52,4.9,14.34,5.29,23.46h4.48m-10.64-33.05c-3.08-3.9-6.82-7.1-11.21-9.61-6.82-3.91-15.14-5.87-24.95-5.87-5.75,0-11.87,1.11-18.35,3.34-6.47,2.22-12.59,5.56-18.34,10-5.75,4.45-10.42,9.97-14.03,16.56-3.6,6.6-5.4,14.3-5.4,23.12,0,7.36,1.26,13.51,3.79,18.45,2.53,4.95,5.91,9.13,10.12,12.54,4.22,3.41,8.82,6.4,13.8,8.97,4.99,2.57,9.99,5.08,15.01,7.53,5.02,2.46,9.62,5.23,13.8,8.34,4.18,3.1,7.55,6.92,10.12,11.44,2.57,4.53,3.85,10.16,3.85,16.91,0,7.36-1.95,13.74-5.86,19.14-3.91,5.41-9.16,9.61-15.76,12.6-6.59,2.99-13.91,4.48-21.96,4.48s-14.86-1.19-20.41-3.56c-5.56-2.38-10.05-5.66-13.46-9.84-3.41-4.17-5.94-9-7.59-14.49-1.65-5.48-2.66-11.36-3.05-17.65h-4.48"/><path class="d" d="M1071.81,7.04h-20.81c-6.6,0-12.29,1.15-17.08,3.45s-8.9,5.57-12.31,9.83c-3.41,4.25-6.36,9.31-8.85,15.18-2.49,5.86-4.7,12.44-6.61,19.72h-4.49l12.08-52.67h85.51m-.64,0h59.11l-12.08,52.67h-4.6c1.92-9.73,2.72-18.21,2.42-25.41-.31-7.21-2.42-12.81-6.33-16.79-3.91-3.99-9.88-6.39-18.97-5.98h-20.59m-25.76,0l-37.94,163.53m25.76,0h25.52v4.48h-26.56m-.34,0h-49.34v-4.48h24.96M1097.57,7.04l-37.94,163.53"/><path class="d" d="M1215.33,2.55h25.42V7.04h-26.44m-25.64,0h-25.43V2.55h52.01m-38,168.02h25.55v4.48h-26.57m.02,0h-50.96v-4.48h26.32M1188.67,7.04l-37.06,163.53M1214.31,7.04l-37.06,163.53"/><path class="d" d="M1274.39,7.9l-36.44,162.67m0,0h25.68v4.48h-26.68m.3,0h-26.75v-4.48h22.74m0,0L1270.07,7.04h-22.77V2.55h27.95m-.86,5.35l67.78,169.45h6.56L1387.5,7.04m-111.91-4.49h27.6l50.94,129.84,28.64-125.35m0,0h-26.57V2.55h32.05m.27,0h22.08V7.04h-23.1"/><path class="d" d="M1545.49,50.74h4.49l11.15-48.19h-3.91l-16.48,15.29m-.53,93.96h17.01v-4.48h-65.32v4.48h20.6m0,0l-9.1,34.5c-.99,1.54-2.62,3.76-4.89,6.67-2.26,2.92-5.17,5.91-8.74,8.97-3.56,3.07-7.85,5.66-12.88,7.76-5.02,2.11-10.82,3.17-17.42,3.17-7.59,0-13.55-1.94-17.88-5.81s-7.4-9.05-9.2-15.53c-1.8-6.47-2.7-13.62-2.7-21.44,0-10.43,1.09-21.37,3.27-32.84,2.19-11.46,5.37-22.59,9.55-33.4s9.35-20.57,15.53-29.27c6.17-8.7,13.26-15.64,21.27-20.82,8.01-5.17,16.85-7.76,26.51-7.76,5.44,0,10.67,.86,15.69,2.59,5.03,1.72,9.44,4.39,13.23,7.99,3.8,3.61,6.69,8.22,8.68,13.86,2,5.63,2.69,12.4,2.07,20.3h2.42m-7.17-32.9c-3.5-4.99-7.97-8.94-13.42-11.84-7.2-3.83-15.45-5.75-24.72-5.75-10.81,0-21.24,1.98-31.28,5.92-10.05,3.95-19.34,9.51-27.89,16.68s-16.01,15.6-22.37,25.3c-6.36,9.7-11.33,20.32-14.89,31.85-3.57,11.54-5.35,23.68-5.35,36.4s2.53,23.63,7.59,32.72c5.06,9.08,12.13,16.06,21.22,20.93,9.08,4.87,19.61,7.3,31.57,7.3,9.35,0,17.9-1.38,25.64-4.14s14.66-6.27,20.76-10.52c6.1-4.26,11.31-8.68,15.64-13.28s7.8-8.7,10.41-12.31l6.56-25.3"/></g></g></g></svg>