<?xml version="1.0" encoding="UTF-8"?><svg xmlns="http://www.w3.org/2000/svg" viewBox="0 0 1562.01 179.13"><defs><style>.d{stroke:#000;stroke-miterlimit:10;}</style></defs><g id="a"/><g id="b"><g id="c"><g><path class="d" d="M.5,175.3v-4.48H78.01v4.48H.5Zm25.3,0L64.9,2.8h25.65L51.44,175.3H25.8ZM38.45,7.28V2.8H115.96V7.28H38.45Z"/><path class="d" d="M85.71,175.3v-4.48h53.13v4.48h-53.13Zm21.73,0L145.28,7.28h-22.77V2.8h28.29l-38.64,172.5h-4.72Zm109.94,2.3L147.47,2.8h30.94l50.94,129.83L259.02,2.8h4.72l-39.79,174.8h-6.56ZM231.42,7.28V2.8h54.39V7.28h-54.39Z"/><path class="d" d="M280.75,55.47l12.08-52.67h143.98l-12.08,52.67h-4.6c1.92-9.74,2.72-18.21,2.42-25.42-.31-7.21-2.42-12.8-6.32-16.79-3.91-3.99-10.24-5.98-18.98-5.98h-67.16c-6.59,0-12.29,1.15-17.08,3.45-4.79,2.3-8.89,5.58-12.3,9.83-3.41,4.25-6.37,9.31-8.86,15.18-2.49,5.87-4.7,12.44-6.61,19.72h-4.49Zm7.25,119.83v-4.48h76.25v4.48h-76.25Zm23.92,0L351.94,2.8h25.76l-40.02,172.5h-25.76Z"/><path class="d" d="M403.23,175.3v-4.48h79.92c10.5,0,19.3-1.92,26.39-5.75,7.09-3.83,12.86-9.28,17.31-16.33,4.45-7.05,7.97-15.45,10.58-25.19h4.48l-11.96,51.75h-126.73Zm19.55,0L462.8,2.8h25.64l-40.02,172.5h-25.65Zm129.38-125.35c1.61-8.2,1.78-15.52,.52-21.96s-4.25-11.5-8.97-15.18c-4.71-3.68-11.56-5.52-20.53-5.52h-81.08V2.8h125.58l-11.04,47.15h-4.49Zm-52.44,62.33c.77-5.14,.48-9.49-.86-13.05-1.34-3.57-3.53-6.27-6.55-8.11-3.03-1.84-6.73-2.76-11.1-2.76h-15.99v-4.48h15.99c4.37,0,8.59-.84,12.65-2.53,4.06-1.69,7.65-4.22,10.75-7.59,3.11-3.37,5.39-7.63,6.84-12.77h4.49l-11.73,51.29h-4.49Z"/><path class="d" d="M541.22,175.3v-4.48h73.6v4.48h-73.6Zm22.66,0L604.24,2.8h25.65l-40.13,172.5h-25.88Zm39.56-88.09v-2.76h30.59c6.29,0,11.92-1.03,16.91-3.1,4.98-2.07,9.32-4.83,13-8.28,3.68-3.45,6.73-7.36,9.14-11.73,2.42-4.37,4.21-8.91,5.41-13.63,1.19-4.72,1.78-9.3,1.78-13.74,0-2.76-.27-5.71-.81-8.85-.54-3.14-1.59-6.06-3.16-8.74-1.57-2.68-3.95-4.87-7.13-6.55-3.18-1.69-7.5-2.53-12.94-2.53h-77.05V2.8h79.35c10.04,0,18.84,1.11,26.39,3.33,7.55,2.22,13.46,5.87,17.71,10.92,4.25,5.06,6.38,11.81,6.38,20.24,0,10.73-2.92,19.8-8.74,27.2-5.83,7.4-14.2,13.03-25.13,16.91-10.92,3.87-24.09,5.81-39.5,5.81h-32.2Zm76.82,89.36c-7.05,0-12.48-1.23-16.27-3.68s-6.44-5.77-7.94-9.95c-1.5-4.18-2.3-8.85-2.42-14.03-.11-5.17,0-10.52,.35-16.04,.34-5.52,.46-10.89,.34-16.1-.12-5.21-.94-9.91-2.47-14.09-1.53-4.18-4.18-7.49-7.93-9.95-3.76-2.45-9.16-3.68-16.22-3.68h-24.26v-2.42h30.48c11.5,0,20.54,1.51,27.14,4.54,6.59,3.03,11.4,7.05,14.43,12.08,3.03,5.02,4.89,10.52,5.58,16.5,.69,5.98,.84,11.96,.46,17.94-.38,5.98-.69,11.46-.92,16.44-.23,4.98,.27,9.01,1.5,12.08,1.23,3.07,3.79,4.6,7.71,4.6,2.3,0,4.33-.29,6.09-.86,1.76-.57,3.53-1.21,5.29-1.9l1.38,4.6c-4.14,1.53-7.78,2.57-10.92,3.1-3.14,.54-6.94,.81-11.38,.81Z"/><path class="d" d="M707.51,175.3v-4.48h79.92c10.5,0,19.3-1.92,26.39-5.75,7.09-3.83,12.86-9.28,17.31-16.33,4.45-7.05,7.97-15.45,10.58-25.19h4.48l-11.96,51.75h-126.73Zm19.55,0L767.08,2.8h25.64l-40.02,172.5h-25.65Zm129.38-125.35c1.61-8.2,1.78-15.52,.52-21.96s-4.25-11.5-8.97-15.18c-4.71-3.68-11.56-5.52-20.53-5.52h-81.08V2.8h125.58l-11.04,47.15h-4.49Zm-52.44,62.33c.77-5.14,.48-9.49-.86-13.05-1.34-3.57-3.53-6.27-6.55-8.11-3.03-1.84-6.73-2.76-11.1-2.76h-15.99v-4.48h15.99c4.37,0,8.59-.84,12.65-2.53,4.06-1.69,7.65-4.22,10.75-7.59,3.11-3.37,5.39-7.63,6.84-12.77h4.49l-11.73,51.29h-4.49Z"/><path class="d" d="M847.92,177.6l11.27-49.22h4.49l.58,13.23c1,3.53,2.03,6.75,3.1,9.66,1.07,2.91,2.3,5.71,3.68,8.39l-19.21,17.94h-3.91Zm61.75,1.04c-8.97,0-16.58-1.3-22.83-3.91-6.25-2.61-11.33-6.21-15.24-10.81-3.91-4.6-6.84-9.95-8.8-16.04-1.96-6.09-3.16-12.59-3.62-19.49h4.49c.38,6.29,1.4,12.17,3.05,17.65,1.65,5.48,4.18,10.31,7.59,14.49,3.41,4.18,7.9,7.46,13.46,9.83,5.56,2.38,12.36,3.57,20.41,3.57s15.37-1.5,21.96-4.49c6.59-2.99,11.85-7.19,15.75-12.59,3.91-5.4,5.87-11.79,5.87-19.15,0-6.75-1.28-12.38-3.85-16.9-2.57-4.52-5.94-8.34-10.12-11.44-4.18-3.1-8.78-5.88-13.8-8.34-5.02-2.45-10.02-4.96-15.01-7.53-4.98-2.57-9.58-5.56-13.8-8.97-4.22-3.41-7.59-7.59-10.12-12.54-2.53-4.94-3.79-11.1-3.79-18.46,0-8.82,1.8-16.52,5.41-23.11,3.6-6.59,8.28-12.11,14.03-16.56,5.75-4.45,11.86-7.78,18.34-10,6.48-2.22,12.59-3.33,18.34-3.33,9.81,0,18.13,1.95,24.96,5.86,6.82,3.91,12.08,9.49,15.75,16.73,3.68,7.25,5.71,15.89,6.1,25.93h-4.49c-.38-9.12-2.15-16.94-5.29-23.46-3.14-6.52-7.71-11.52-13.69-15.01-5.98-3.49-13.34-5.23-22.08-5.23-5.83,0-11.56,1.3-17.19,3.91-5.63,2.61-10.27,6.21-13.92,10.81-3.64,4.6-5.46,10-5.46,16.21s1.28,10.93,3.85,14.83c2.57,3.91,5.96,7.25,10.18,10.01,4.21,2.76,8.85,5.29,13.92,7.59,5.06,2.3,10.12,4.81,15.18,7.53,5.06,2.72,9.7,6.04,13.92,9.95,4.21,3.91,7.61,8.82,10.18,14.72,2.57,5.9,3.85,13.22,3.85,21.96,0,7.97-1.67,15.37-5,22.19-3.33,6.82-7.96,12.75-13.86,17.77-5.9,5.02-12.67,8.91-20.3,11.67-7.63,2.76-15.74,4.14-24.32,4.14Zm70.04-129.6l.69-10.58c-.84-3.76-1.86-7.34-3.05-10.75-1.19-3.41-2.82-7-4.89-10.75L990.98,.5h3.91l-10.69,48.53h-4.49Z"/><path class="d" d="M1001.91,55.47l12.08-52.67h143.98l-12.08,52.67h-4.6c1.92-9.74,2.72-18.21,2.42-25.42-.31-7.21-2.42-12.8-6.32-16.79-3.91-3.99-10.24-5.98-18.98-5.98h-67.16c-6.59,0-12.29,1.15-17.08,3.45-4.79,2.3-8.89,5.58-12.3,9.83-3.41,4.25-6.37,9.31-8.86,15.18-2.49,5.87-4.7,12.44-6.61,19.72h-4.49Zm7.25,119.83v-4.48h76.25v4.48h-76.25Zm23.92,0L1073.09,2.8h25.76l-40.02,172.5h-25.76Z"/><path class="d" d="M1125.53,175.3v-4.48h77.51v4.48h-77.51Zm25.3,0L1189.93,2.8h25.65l-39.1,172.5h-25.64Zm12.65-168.02V2.8h77.51V7.28h-77.51Z"/><path class="d" d="M1210.75,175.3v-4.48h53.13v4.48h-53.13Zm21.74,0L1270.32,7.28h-22.77V2.8h28.29l-38.64,172.5h-4.71Zm109.94,2.3L1272.5,2.8h30.94l50.94,129.83L1384.05,2.8h4.72l-39.79,174.8h-6.56Zm14.03-170.31V2.8h54.39V7.28h-54.39Z"/><path class="d" d="M1461.44,177.6c-11.96,0-22.48-2.43-31.57-7.3-9.08-4.87-16.16-11.85-21.22-20.93-5.06-9.08-7.59-19.99-7.59-32.72s1.78-24.86,5.35-36.4c3.56-11.54,8.53-22.16,14.89-31.85,6.36-9.7,13.82-18.13,22.37-25.3,8.55-7.17,17.84-12.73,27.89-16.67,10.04-3.95,20.47-5.92,31.28-5.92,9.28,0,17.52,1.92,24.72,5.75,7.21,3.83,12.71,9.51,16.5,17.02,3.79,7.51,5.16,16.75,4.08,27.71h-2.42c.61-7.9-.08-14.66-2.07-20.3-1.99-5.64-4.89-10.25-8.68-13.86-3.79-3.6-8.21-6.27-13.23-7.99-5.02-1.73-10.25-2.59-15.7-2.59-9.66,0-18.5,2.59-26.51,7.76-8.01,5.18-15.1,12.11-21.27,20.81-6.17,8.7-11.35,18.46-15.53,29.27-4.18,10.81-7.36,21.95-9.54,33.41-2.18,11.46-3.28,22.41-3.28,32.83,0,7.82,.9,14.97,2.7,21.45,1.8,6.48,4.87,11.65,9.2,15.53,4.33,3.87,10.29,5.81,17.88,5.81,6.59,0,12.4-1.05,17.42-3.16,5.02-2.11,9.32-4.7,12.88-7.76,3.57-3.07,6.48-6.06,8.74-8.97,2.26-2.91,3.89-5.14,4.89-6.67l9.54-36.23h27.71l-7.01,27.02c-2.61,3.6-6.08,7.71-10.41,12.31-4.33,4.6-9.54,9.03-15.64,13.28-6.09,4.25-13.01,7.76-20.76,10.52-7.75,2.76-16.29,4.14-25.65,4.14Zm30.71-65.55v-4.48h65.32v4.48h-65.32Zm53.59-61.06l1.27-9.2c-.31-3.83-.98-7.74-2.01-11.73-1.04-3.99-2.7-7.67-5-11.04l17.48-16.21h3.91l-11.16,48.19h-4.49Z"/></g></g></g></svg>