<?xml version="1.0" encoding="utf-8"?>
<!-- Generator: Adobe Illustrator 22.1.0, SVG Export Plug-In . SVG Version: 6.00 Build 0)  -->
<svg version="1.1" id="レイヤー_1" xmlns="http://www.w3.org/2000/svg" xmlns:xlink="http://www.w3.org/1999/xlink" x="0px"
	 y="0px" viewBox="0 0 1205.4 146.6" style="enable-background:new 0 0 1205.4 146.6;" xml:space="preserve">
<style type="text/css">
	.st0{fill:#2568A9;}
	.st1{fill:#00406D;}
	.st2{fill:#E4E14C;}
</style>
<g>
	<path class="st0" d="M262.5,125.5h-12.3v19.1h-4.3v-19.1h-12.3v-3.3h28.9L262.5,125.5L262.5,125.5z"/>
	<path class="st0" d="M296.6,133.4c0,3.7-1.7,6.6-5.2,8.9c-3,2-6.8,3-11.3,3s-8.3-1-11.4-3c-3.5-2.3-5.2-5.2-5.2-8.9
		c0-3.6,1.8-6.5,5.3-8.9c3.1-2,6.8-3,11.3-3s8.2,1,11.3,3C294.8,126.8,296.6,129.8,296.6,133.4z M292.1,133.4c0-2.6-1.3-4.7-3.8-6.4
		c-2.2-1.4-4.9-2.1-8.2-2.1c-3.6,0-6.5,0.8-8.7,2.4c-2.3,1.6-3.4,3.6-3.4,6.1s1.1,4.6,3.3,6.1c2.2,1.6,5.1,2.3,8.8,2.3
		c3.6,0,6.6-0.8,8.8-2.4C291,137.9,292.1,135.9,292.1,133.4z"/>
	<path class="st0" d="M360.5,144.6h-4.3v-18.3h-0.1l-13.4,14.6l-13.2-14.6h-0.1v18.3h-4.3v-22.4h5.3l12.3,13.5l12.4-13.5h5.3v22.4
		H360.5z"/>
	<path class="st0" d="M397.6,144.6h-4.7l-3-5h-17.3l-3,5h-4.7l13.6-22.4h5.4L397.6,144.6z M387.9,136.3l-6.6-10.9l-6.6,10.9H387.9z"
		/>
	<path class="st0" d="M432,144.6h-5.5l-12.3-11.8l-7.8,5v6.8h-4.3v-22.4h4.3v11.6l18-11.6h6.2l-13.2,8.5L432,144.6z"/>
	<path class="st0" d="M463.3,144.6h-27v-22.4h26v3.3h-21.7v5.8h15.1v3.3h-15.1v6.6h22.7V144.6z"/>
	<path class="st0" d="M519.8,144.6h-4.7l-3-5h-17.3l-3,5h-4.5l13.6-22.4h5.4L519.8,144.6z M510.1,136.3l-6.6-10.9l-6.6,10.9H510.1z"
		/>
	<path class="st0" d="M566.4,122.2c2.6,0,4.7,0.6,6.3,1.9s2.3,3,2.3,5.1c0,2.2-0.8,3.9-2.4,5.1c-1.6,1.2-3.9,1.8-7,1.8h-15.3v8.5
		H546v-22.4L566.4,122.2L566.4,122.2z M565.6,132.7c3.3,0,4.9-1.2,4.9-3.5c0-2.5-1.7-3.7-5.2-3.7h-15v7.2H565.6z"/>
	<path class="st0" d="M606.8,144.6h-26.9v-22.4h25.9v3.3h-21.7v5.8h15.1v3.3h-15.1v6.6h22.7V144.6z"/>
	<path class="st0" d="M642.4,144.6h-5l-7-8.5h-13v8.5h-4.3v-22.4h20.3c2.7,0,4.8,0.6,6.4,1.9s2.3,3,2.3,5.2c0,1.9-0.6,3.4-1.9,4.6
		c-1.2,1.1-2.8,1.8-4.8,2L642.4,144.6z M632.9,132.7c3.3,0,4.9-1.2,4.9-3.5c0-2.5-1.8-3.7-5.3-3.7h-15v7.2H632.9z"/>
	<path class="st0" d="M671.2,127.5c-3.8-1.7-7.7-2.5-11.7-2.5c-2.6,0-4.6,0.3-6,0.8s-2.1,1.3-2.1,2.2c0,1,0.7,1.7,2.2,2.2
		c1.1,0.3,2.8,0.6,5.2,0.7c3.6,0.2,5.9,0.4,7,0.5c3.2,0.4,5.6,1.1,7.1,2.1s2.3,2.4,2.3,4.3c0,2.4-1.2,4.2-3.6,5.5
		c-2.4,1.3-5.9,1.9-10.4,1.9c-6.6,0-11.7-1.3-15.3-3.8l2.3-2.7c4,2.1,8.4,3.2,13,3.2c3,0,5.3-0.4,7-1.1c1.6-0.7,2.4-1.7,2.4-2.9
		c0-1.4-1-2.4-3.1-2.8c-1.1-0.2-4-0.5-8.8-0.8c-4.2-0.2-7.2-0.7-8.9-1.5c-2-0.9-3-2.3-3-4.4c0-2.1,1.1-3.8,3.4-5
		c2.3-1.2,5.5-1.8,9.6-1.8c5.5,0,10.2,1.1,13.9,3.3L671.2,127.5z"/>
	<path class="st0" d="M713,133.4c0,3.7-1.7,6.6-5.2,8.9c-3,2-6.8,3-11.3,3s-8.3-1-11.4-3c-3.5-2.3-5.2-5.2-5.2-8.9
		c0-3.6,1.8-6.5,5.3-8.9c3.1-2,6.8-3,11.3-3s8.2,1,11.3,3C711.3,126.8,713,129.8,713,133.4z M708.6,133.4c0-2.6-1.3-4.7-3.8-6.4
		c-2.2-1.4-4.9-2.1-8.2-2.1c-3.6,0-6.5,0.8-8.7,2.4c-2.3,1.6-3.4,3.6-3.4,6.1s1.1,4.6,3.3,6.1c2.2,1.6,5.1,2.3,8.8,2.3
		c3.6,0,6.6-0.8,8.8-2.4C707.5,137.9,708.6,135.9,708.6,133.4z"/>
	<path class="st0" d="M749.5,144.6h-5.3l-19.6-18.4v18.4h-4.3v-22.4h5.3l19.6,18.4v-18.4h4.3L749.5,144.6L749.5,144.6z"/>
	<path class="st0" d="M816,125.5h-21.7v5.8h15.1v3.3h-15.1v10H790v-22.4h25.9L816,125.5L816,125.5z"/>
	<path class="st0" d="M850.3,133.4c0,3.7-1.7,6.6-5.2,8.9c-3,2-6.8,3-11.3,3s-8.3-1-11.4-3c-3.5-2.3-5.2-5.2-5.2-8.9
		c0-3.6,1.8-6.5,5.3-8.9c3.1-2,6.8-3,11.3-3s8.2,1,11.3,3C848.6,126.8,850.3,129.8,850.3,133.4z M845.9,133.4c0-2.6-1.3-4.7-3.8-6.4
		c-2.2-1.4-4.9-2.1-8.2-2.1c-3.6,0-6.5,0.8-8.7,2.4c-2.3,1.6-3.4,3.6-3.4,6.1s1.1,4.6,3.3,6.1c2.2,1.6,5.1,2.3,8.8,2.3
		c3.6,0,6.6-0.8,8.8-2.4C844.8,137.9,845.9,135.9,845.9,133.4z"/>
	<path class="st0" d="M879.6,127.5c-3.8-1.7-7.7-2.5-11.7-2.5c-2.6,0-4.6,0.3-6,0.8s-2.1,1.3-2.1,2.2c0,1,0.7,1.7,2.2,2.2
		c1.1,0.3,2.8,0.6,5.2,0.7c3.6,0.2,5.9,0.4,7,0.5c3.2,0.4,5.6,1.1,7.1,2.1s2.3,2.4,2.3,4.3c0,2.4-1.2,4.2-3.6,5.5
		c-2.4,1.3-5.9,1.9-10.4,1.9c-6.6,0-11.7-1.3-15.3-3.8l2.3-2.7c4,2.1,8.4,3.2,13,3.2c3,0,5.3-0.4,7-1.1c1.6-0.7,2.4-1.7,2.4-2.9
		c0-1.4-1-2.4-3.1-2.8c-1.1-0.2-4-0.5-8.8-0.8c-4.2-0.2-7.2-0.7-8.9-1.5c-2-0.9-3-2.3-3-4.4c0-2.1,1.1-3.8,3.4-5
		c2.3-1.2,5.5-1.8,9.6-1.8c5.5,0,10.2,1.1,13.9,3.3L879.6,127.5z"/>
	<path class="st0" d="M913.4,125.5h-12.3v19.1h-4.3v-19.1h-12.3v-3.3h28.9L913.4,125.5L913.4,125.5z"/>
	<path class="st0" d="M944.9,144.6H918v-22.4h25.9v3.3h-21.7v5.8h15.1v3.3h-15.1v6.6h22.7L944.9,144.6L944.9,144.6z"/>
	<path class="st0" d="M980.5,144.6h-5l-7-8.5h-13v8.5h-4.2v-22.4h20.3c2.7,0,4.8,0.6,6.4,1.9c1.5,1.3,2.3,3,2.3,5.2
		c0,1.9-0.6,3.4-1.9,4.6c-1.2,1.1-2.8,1.8-4.8,2L980.5,144.6z M970.9,132.7c3.3,0,4.9-1.2,4.9-3.5c0-2.5-1.8-3.7-5.3-3.7h-15v7.2
		H970.9z"/>
	<path class="st0" d="M1037.6,144.6h-4.3v-10h-20.6v10h-4.3v-22.4h4.3v9.1h20.6v-9.1h4.3V144.6z"/>
	<path class="st0" d="M1075.1,137.4c0,2.3-1.3,4.2-3.9,5.7c-2.7,1.5-6.2,2.3-10.6,2.3s-8-0.8-10.7-2.3c-2.6-1.5-3.9-3.4-3.9-5.7
		v-15.2h4.3v14.3c0,1.8,0.9,3.1,2.6,4c1.8,0.9,4.3,1.4,7.7,1.4s5.9-0.5,7.7-1.4c1.7-0.9,2.6-2.3,2.6-4v-14.3h4.3L1075.1,137.4
		L1075.1,137.4z"/>
	<path class="st0" d="M1118.9,144.6h-4.3v-18.3h-0.1l-13.4,14.6l-13.3-14.6h-0.1v18.3h-4.3v-22.4h5.3l12.3,13.5l12.4-13.5h5.3v22.4
		H1118.9z"/>
	<path class="st0" d="M1156,144.6h-4.7l-3-5H1131l-3,5h-4.7l13.6-22.4h5.4L1156,144.6z M1146.3,136.3l-6.6-10.9l-6.6,10.9H1146.3z"
		/>
	<path class="st0" d="M1189.8,144.6h-5.3l-19.6-18.4v18.4h-4.3v-22.4h5.3l19.6,18.4v-18.4h4.3V144.6z"/>
	<path class="st0" d="M343.8,98.3c-2.2,0-4.7-0.7-6.5-2l-86.7-62.8v54.6c0,5.6-3.7,10.2-9.4,10.2c-5.7,0-9.4-4.6-9.4-10.2V13.3
		c0-3.8,1.7-7.4,5.2-9.1s7.4-1.4,10.6,0.9l86.1,62.8V13.3c0-5.6,4.7-10.2,10.4-10.2c5.7,0,10.4,4.6,10.4,10.2v74.8
		c0,3.8-2.3,7.4-5.8,9.1C347.1,98,345.4,98.3,343.8,98.3z"/>
	<path class="st0" d="M613.3,98.3c-2.4,0-4.8-0.7-6.8-2.2L505.7,21.3c-4.7-3.5-5.5-9.9-1.8-14.3c3.8-4.4,10.6-5.1,15.4-1.6
		l100.8,74.8c4.7,3.5,5.5,9.9,1.8,14.3C619.7,97,616.5,98.3,613.3,98.3z"/>
	<path class="st0" d="M512.5,98.3c-3.2,0-6.4-1.3-8.6-3.9c-3.8-4.4-3-10.8,1.8-14.3L606.5,5.3c4.7-3.5,11.6-2.8,15.4,1.6
		c3.8,4.4,3,10.8-1.8,14.3L519.3,96.1C517.3,97.6,514.9,98.3,512.5,98.3z"/>
	<path class="st0" d="M750.2,23.8H646.8c-5.3,0-9.6-4.6-9.6-10.3c0-5.6,4.3-10.3,9.6-10.3h103.4c5.3,0,9.6,4.6,9.6,10.3
		C759.8,19.1,755.5,23.8,750.2,23.8z"/>
	<path class="st0" d="M698.5,98.4c-6.2,0-10.3-4.6-10.3-10.2V13.4c0-5.6,4.1-10.2,10.3-10.2s10.3,4.6,10.3,10.2v74.8
		C708.8,93.9,704.7,98.4,698.5,98.4z"/>
	<path class="st0" d="M1056,98.5c-2.1,0-4.6-0.7-6.4-2l-85.4-62.8v54.6c0,5.6-4.6,10.2-10.2,10.2s-10.2-4.6-10.2-10.2V13.5
		c0-3.8,2.6-7.4,6-9.1s7.8-1.4,10.9,0.9l85.3,62.8V13.5c0-5.6,4.6-10.2,10.2-10.2s10.2,4.6,10.2,10.2v74.8c0,3.8-2.3,7.4-5.7,9.1
		C1059.3,98.2,1057.6,98.5,1056,98.5z"/>
	<path class="st0" d="M1191.7,24.2h-103c-5.4,0-9.8-4.6-9.8-10.3s4.4-10.3,9.8-10.3h103c5.4,0,9.8,4.6,9.8,10.3
		S1197.1,24.2,1191.7,24.2z"/>
	<path class="st0" d="M1191.6,97.9h-101.8c-5.5,0-10.8-4.5-10.8-10v-37c0-5.6,5.3-10.2,10.8-10.2h91.8c5.5,0,10,4.6,10,10.2
		s-4.5,10.2-10,10.2H1099v16.6h92.6c5.5,0,10,4.6,10,10.2C1201.6,93.4,1197.1,97.9,1191.6,97.9z"/>
	<path class="st0" d="M903.2,98.5h-66.1c-15.5,0-28.7-12.3-28.7-26.8V30.3c0-14.5,13.2-26.9,28.7-26.9h66.1
		c15.5,0,27.8,12.4,27.8,26.9v41.4C931,86.2,918.8,98.5,903.2,98.5z M837.1,22.3c-5.8,0-9.9,3.2-9.9,7.9v41.4c0,4.7,4,7.8,9.9,7.8
		h66.1c5.8,0,10.8-3.1,10.8-7.8V30.2c0-4.7-4.9-7.9-10.8-7.9H837.1z"/>
	<path class="st0" d="M479.6,23.4l-103.1,0.5c-5.4,0-9.8-4.6-9.8-10.2s4.3-10.3,9.7-10.3l103.1-0.5c5.4,0,9.8,4.6,9.8,10.2
		C489.4,18.7,485,23.3,479.6,23.4z"/>
	<path class="st0" d="M479.7,98L378,98.4c-5.5,0-10.9-4.5-10.9-10.1L367,50.9c0-5.6,5.3-10.4,10.8-10.4l91.7-0.4
		c5.5,0,10,4.6,10,10.2s-4.4,10.3-9.9,10.3L387,61l0.1,16.8l92.5-0.4c5.5,0,10,4.6,10,10.2C489.6,93.3,485.2,98,479.7,98z"/>
	<path class="st1" d="M189,15.5v79.9H61.7V15.5L189,15.5 M199.3,5.2H51.4v100.5h147.9V5.2z"/>
	<polyline class="st2" points="189,15.5 189,95.4 61.7,95.4 61.7,15.5 189,15.5 	"/>
	<path class="st1" d="M140.8,51.6v79.9H13.6V51.6L140.8,51.6 M151.1,41.4H3.3v100.5h147.8V41.4z"/>
	<polyline class="st0" points="140.8,51.6 140.8,131.6 13.6,131.6 13.6,51.6 140.8,51.6 	"/>
</g>
</svg>
