<svg xmlns="http://www.w3.org/2000/svg" width="128.378" height="53.536" viewBox="0 0 128.378 53.536">
  <g id="グループ_166" data-name="グループ 166" transform="translate(-61 -42)">
    <g id="レイヤー_1" data-name="レイヤー 1" transform="translate(61 42.012)">
      <path id="パス_3" data-name="パス 3" d="M9.311,85.075,7.547,94.093H5.592L5.039,90.8c-.152-.841-.254-1.76-.357-2.835h0c-.147,1.075-.274,1.984-.44,2.859l-.616,3.28H1.672L0,85.075H1.955L2.415,88.6c.137,1.051.249,2.17.367,3.162h0c.127-1.036.313-2.087.489-3.187l.587-3.5H5.636l.543,3.568c.156,1.036.283,2,.386,3.089h.029c.1-1.085.23-2.1.376-3.162l.489-3.5Z" transform="translate(0 -43.497)"/>
      <path id="パス_4" data-name="パス 4" d="M28.929,96.252a4.888,4.888,0,0,1-1.955.362c-1.848,0-2.894-1.237-2.894-3.289,0-1.877.978-3.524,2.737-3.524,1.4,0,2.395,1.051,2.395,3.28a5.249,5.249,0,0,1-.054.865H25.835c.044.782.67,1.144,1.432,1.144a4.061,4.061,0,0,0,1.413-.254Zm-1.388-3.72c0-.582-.166-1.32-.806-1.32s-.865.772-.9,1.32Z" transform="translate(-12.31 -45.915)"/>
      <path id="パス_5" data-name="パス 5" d="M43.726,87.844a1.72,1.72,0,0,1,1.505-.826c1.305,0,2.092,1.388,2.092,3.265,0,2.356-1.129,3.558-2.361,3.558a1.564,1.564,0,0,1-1.466-.978h0l-.127.846H41.81c0-.513.044-1.285.044-2V84.32h1.838v3.524ZM43.7,91.1c0,.733.415,1.109.816,1.109.616,0,.978-.64.978-1.808,0-1.026-.313-1.74-.978-1.74-.406,0-.816.411-.816,1.119Z" transform="translate(-21.375 -43.113)"/>
      <path id="パス_6" data-name="パス 6" d="M64.749,86.956a2.879,2.879,0,0,0-1.422-.371c-.709,0-1.056.386-1.056.826s.352.743,1.329,1.246a2.822,2.822,0,0,1,1.818,2.649,2.754,2.754,0,0,1-3.074,2.81,4.267,4.267,0,0,1-1.994-.489l.318-1.706a3.8,3.8,0,0,0,1.755.489c.772,0,1.149-.371,1.149-.909s-.367-.85-1.2-1.271a3.007,3.007,0,0,1-1.955-2.615,2.668,2.668,0,0,1,2.933-2.727,3.71,3.71,0,0,1,1.755.4Z" transform="translate(-30.853 -43.404)"/>
      <path id="パス_7" data-name="パス 7" d="M77.808,87.042l1.818-.572v1.774h1.222v1.466H79.627v2.473c0,.772.22,1.051.66,1.051a1.466,1.466,0,0,0,.489-.059v1.588a3.661,3.661,0,0,1-1.129.152c-1.808,0-1.838-1.725-1.838-2.473V89.725H77.09V88.259h.723Z" transform="translate(-39.411 -44.212)"/>
      <path id="パス_8" data-name="パス 8" d="M97.082,94.548c0,.806.029,1.53.054,2.111H95.547l-.083-.816h-.029a1.9,1.9,0,0,1-1.642.943c-1.193,0-1.862-.9-1.862-2.786V90.09h1.838v3.617c0,.885.22,1.4.733,1.4.376,0,.743-.327.743-.978V90.09h1.838Z" transform="translate(-46.998 -46.063)"/>
      <path id="パス_9" data-name="パス 9" d="M115.3,91.7c0,.723,0,1.466.044,2h-1.608l-.083-.85h-.029a1.75,1.75,0,0,1-1.545.978c-1.349,0-2.224-1.466-2.224-3.382,0-2.229,1.085-3.421,2.312-3.421a1.354,1.354,0,0,1,1.276.674h.029V84.3H115.3Zm-1.838-1.877c0-.909-.489-1.178-.792-1.178-.67,0-.978.816-.978,1.808,0,1.129.4,1.725.978,1.725.347,0,.806-.244.806-1.144Z" transform="translate(-56.164 -43.103)"/>
      <path id="パス_10" data-name="パス 10" d="M133.361,90.09l-1.285,4.668a10.3,10.3,0,0,1-1.735,3.851,3.1,3.1,0,0,1-1.642.978l-.45-1.75a2.172,2.172,0,0,0,1.5-1.413.806.806,0,0,0-.073-.293L127.75,90.1h2.019l.689,3.221c.083.371.166.792.22,1.144h.029c.064-.352.127-.772.186-1.129l.562-3.231Z" transform="translate(-65.31 -46.063)"/>
      <path id="パス_11" data-name="パス 11" d="M150.044,86.926a2.879,2.879,0,0,0-1.422-.371c-.709,0-1.056.386-1.056.826s.332.748,1.315,1.246a2.819,2.819,0,0,1,1.818,2.639,2.754,2.754,0,0,1-3.074,2.81,4.267,4.267,0,0,1-1.994-.489l.313-1.725a3.8,3.8,0,0,0,1.755.489c.772,0,1.149-.371,1.149-.909s-.367-.85-1.2-1.271a3.007,3.007,0,0,1-1.955-2.615,2.668,2.668,0,0,1,2.933-2.727,3.71,3.71,0,0,1,1.755.4Z" transform="translate(-74.451 -43.373)"/>
      <path id="パス_12" data-name="パス 12" d="M167.391,94.987a9.492,9.492,0,0,0,.093,1.549h-1.652l-.1-.631H165.7a1.755,1.755,0,0,1-1.515.758,1.849,1.849,0,0,1-1.764-2.019c0-1.74,1.388-2.483,3.123-2.5,0-.489-.2-.865-.938-.865a2.634,2.634,0,0,0-1.466.445l-.327-1.315a4.2,4.2,0,0,1,2.151-.562c1.955,0,2.444,1.378,2.444,2.835ZM165.6,93.437c-.762,0-1.413.244-1.413,1,0,.538.293.772.616.772a.836.836,0,0,0,.792-.924Z" transform="translate(-83.034 -45.94)"/>
      <path id="パス_13" data-name="パス 13" d="M182.116,90.767a1.813,1.813,0,0,1,1.632-.978c1.3,0,2.185,1.4,2.185,3.358,0,2.4-1.2,3.465-2.351,3.465a1.427,1.427,0,0,1-1.256-.665H182.3V99.1h-1.843V92.107c0-.816,0-1.54-.044-2.17H182l.093.826Zm.176,3.1c0,.665.332,1.153.806,1.153.65,0,.978-.758.978-1.784s-.332-1.774-.953-1.774c-.43,0-.826.43-.826,1.129Z" transform="translate(-92.231 -45.909)"/>
      <path id="パス_14" data-name="パス 14" d="M200.681,90.767a1.813,1.813,0,0,1,1.632-.978c1.3,0,2.185,1.4,2.185,3.358,0,2.4-1.2,3.465-2.351,3.465a1.427,1.427,0,0,1-1.256-.665h-.029V99.1h-1.838V92.107c0-.816,0-1.54-.044-2.17h1.589l.093.826Zm.176,3.1c0,.665.332,1.153.806,1.153.65,0,.978-.758.978-1.784s-.332-1.774-.953-1.774c-.43,0-.826.43-.826,1.129Z" transform="translate(-101.725 -45.909)"/>
      <path id="パス_15" data-name="パス 15" d="M222.514,93.2c0,2.556-1.466,3.451-2.757,3.451-1.632,0-2.747-1.261-2.747-3.372,0-2.2,1.193-3.451,2.81-3.451S222.514,91.233,222.514,93.2Zm-2.737-1.877c-.689,0-.909,1-.909,1.911,0,1.095.283,1.926.909,1.926s.88-.875.88-1.926C220.651,92.269,220.427,91.326,219.776,91.326Z" transform="translate(-110.942 -45.93)"/>
      <path id="パス_16" data-name="パス 16" d="M239.09,91.838a1.642,1.642,0,0,0-.45-.049,1.051,1.051,0,0,0-1.066.826,2.093,2.093,0,0,0-.073.616v3.289h-1.838V92.083c0-.865,0-1.53-.044-2.121H237.2l.073,1.095h.044a1.589,1.589,0,0,1,1.388-1.227,1.72,1.72,0,0,1,.386.034Z" transform="translate(-120.456 -45.93)"/>
      <path id="パス_17" data-name="パス 17" d="M254.564,93.2c0,2.556-1.466,3.451-2.757,3.451-1.632,0-2.747-1.261-2.747-3.372,0-2.2,1.193-3.451,2.81-3.451S254.564,91.233,254.564,93.2Zm-2.737-1.877c-.689,0-.909,1-.909,1.911,0,1.095.283,1.926.909,1.926s.88-.875.88-1.926C252.706,92.269,252.452,91.326,251.826,91.326Z" transform="translate(-127.327 -45.93)"/>
      <path id="パス_18" data-name="パス 18" d="M168.835,32.034,154.171,17.371a.63.63,0,0,0-1,0l-3.5,3.6a.816.816,0,0,0,.029.865l11.369,11.354.264.264-9.678,9.678a.489.489,0,0,0-.1.547c.078.23.357.274.528.274l7.136.044a1.74,1.74,0,0,0,.978-.489l8.593-8.593A1.811,1.811,0,0,0,168.835,32.034Z" transform="translate(-76.457 -8.76)"/>
      <path id="パス_19" data-name="パス 19" d="M113.029,12.506l14.663,14.663a.631.631,0,0,0,1,0l3.514-3.573a.816.816,0,0,0-.029-.865L120.811,11.362l-.264-.264,9.678-9.678a.489.489,0,0,0,.1-.547C130.249.643,129.97.6,129.8.6L122.668.56a1.74,1.74,0,0,0-.978.489l-8.607,8.578A1.821,1.821,0,0,0,113.029,12.506Z" transform="translate(-57.427 -0.292)"/>
      <path id="パス_20" data-name="パス 20" d="M241.059,32.034,226.4,17.371a.631.631,0,0,0-1,0l-3.509,3.6a.816.816,0,0,0,.029.865l11.364,11.354.264.264-9.7,9.673a.489.489,0,0,0-.1.547c.078.23.357.274.528.274l7.136.044a1.74,1.74,0,0,0,.978-.489l8.593-8.593A1.793,1.793,0,0,0,241.059,32.034Z" transform="translate(-113.378 -8.76)"/>
      <path id="パス_21" data-name="パス 21" d="M185.258,12.506l14.663,14.663a.631.631,0,0,0,1,0l3.539-3.539a.816.816,0,0,0-.029-.865l-11.408-11.4-.264-.264,9.678-9.678a.489.489,0,0,0,.1-.547c-.078-.23-.357-.274-.528-.274L194.877.56a1.74,1.74,0,0,0-.978.489l-8.6,8.578A1.814,1.814,0,0,0,185.258,12.506Z" transform="translate(-94.347 -0.292)"/>
      <path id="パス_22" data-name="パス 22" d="M45.859,16.564l3.485-7.551L45.356.371C45.288.225,45.077,0,44.911,0H39c-.288,0-.376.1-.45.274A.616.616,0,0,0,38.6.826Z" transform="translate(-19.686 -0.006)"/>
      <path id="パス_23" data-name="パス 23" d="M84.5.274C84.424.093,84.336.02,84.048,0H78.139c-.166,0-.376.225-.445.371L67.19,23.119l-3.025-6.549L60.68,24.116l4.9,10.587a.875.875,0,0,0,.8.518h1.628a.875.875,0,0,0,.8-.518L84.449.811A.616.616,0,0,0,84.5.274Z" transform="translate(-31.022 -0.006)"/>
      <path id="パス_24" data-name="パス 24" d="M34.659.268a.394.394,0,0,0-.445-.274H28.3c-.166,0-.371.225-.445.371l-10.5,22.747L6.843.365c-.064-.147-.269-.371-.435-.371H.489a.391.391,0,0,0-.44.274A.616.616,0,0,0,.088.825L15.738,34.7a.875.875,0,0,0,.8.518h1.628a.875.875,0,0,0,.8-.518L34.61.805a.616.616,0,0,0,.049-.538Z" transform="translate(0 0)"/>
    </g>
  </g>
</svg>
