<svg xmlns="http://www.w3.org/2000/svg" viewBox="0 0 54.8 223.73"><defs><style>.cls-1{fill:#231815;}.cls-2,.cls-3{fill:#e60012;}.cls-2{stroke:#e60012;stroke-linecap:round;stroke-linejoin:round;stroke-width:0.2px;}</style></defs><g id="レイヤー_2" data-name="レイヤー 2"><g id="レイヤー_1-2" data-name="レイヤー 1"><path class="cls-1" d="M32,.88l.67,1.31v.17h.22L33,2.1v0c0-.28,0-.54,0-.8a1.22,1.22,0,0,0-.28-.73A.92.92,0,0,0,32.17.2a.5.5,0,0,0-.46.23l0,0,.06.31Z"/><path class="cls-1" d="M30.26,9a2.27,2.27,0,0,0,.8.54A4.09,4.09,0,0,0,32,9.8h.34a4.93,4.93,0,0,0,.55,0,4.34,4.34,0,0,0,.81-.19,4.5,4.5,0,0,0,.74-.33l.05,0V9h-.1l-1.2-.06L32,8.88a1.86,1.86,0,0,1-1-.36.94.94,0,0,1-.3-.39,1.53,1.53,0,0,1-.11-.47,5.29,5.29,0,0,1,.07-.9,6.94,6.94,0,0,1,.2-.85,2.69,2.69,0,0,1,.38-.78l0,0-.11-.35-.36,0,0,0a4.28,4.28,0,0,0-.44.81c-.11.28-.22.56-.31.85a4,4,0,0,0-.16.92,4.39,4.39,0,0,0,.07.82A1.73,1.73,0,0,0,30.26,9Z"/><path class="cls-1" d="M35.85,1.08l.08.09L36,1.08a1,1,0,0,0,.21-.56l0-.27L35.94,0h0a.4.4,0,0,0-.44.2l0,0v0A1.62,1.62,0,0,0,35.85,1.08Z"/><path class="cls-1" d="M34.94,1.15h0A.29.29,0,0,0,35.2.82L35,.25H34.9c-.26,0-.36.06-.41.16l0,0,.09.5Z"/><path class="cls-1" d="M34.83,15.13l-.32.08,0,.1c.06.24.11.49.17.74a3.31,3.31,0,0,1,.09.77v.05l0,0-1,.65a7.45,7.45,0,0,0-.95.75,3.43,3.43,0,0,0-.74,1v.47l.18-.25a4,4,0,0,1,.77-.77c.29-.22.59-.42.9-.61l.9-.52,0,.86c0,.56,0,1.1,0,1.64s0,1.05-.11,1.57A3.61,3.61,0,0,1,34.3,23h-.08a7.81,7.81,0,0,0-.83,0,6.43,6.43,0,0,0-.8.11,2.22,2.22,0,0,0-.74.28l-.05,0v.37l.52.17h.8q.39,0,.78,0a1.43,1.43,0,0,0,.69-.27l.74.16c.25.06.5.14.74.22a2.84,2.84,0,0,1,.65.33v.09l.38-.06v-.07a.85.85,0,0,0-.25-.73h0a2.54,2.54,0,0,0-.87-.33l-.77-.15a5.56,5.56,0,0,0,.23-.73,6.09,6.09,0,0,0,.13-.9c0-.31,0-.62.08-.93s0-.72,0-1.11,0-.74-.06-1.11-.06-.76-.11-1.09h0a1.21,1.21,0,0,0,.54-.58l0,0L36,16.11l-.13-.06h-.19v.08a.63.63,0,0,1-.27.4,4.53,4.53,0,0,0-.13-.66,1.7,1.7,0,0,0-.37-.7Z"/><path class="cls-1" d="M28.46,25a8,8,0,0,0,.26,1.38v.17H29V24.15c0-1,.07-2,.12-2.94s.14-2,.27-2.92A13.05,13.05,0,0,1,30,15.57h.08L30,15.22l-.33.13,0,0a6.94,6.94,0,0,0-.84,2.17c-.15.75-.28,1.52-.38,2.28a22.19,22.19,0,0,0-.18,2.33c0,.48,0,1,.07,1.45S28.41,24.58,28.46,25Z"/><path class="cls-1" d="M28.4,40.29l0,0c.12-.32.25-.65.39-1a5.39,5.39,0,0,1,.48-.88,10.1,10.1,0,0,1,.62-.84,2.82,2.82,0,0,1,.38-.39A1.07,1.07,0,0,1,30.7,37l.37,0a2.09,2.09,0,0,1,.55.6c.15.25.29.5.45.74a6.8,6.8,0,0,0,.54.77,2.24,2.24,0,0,0,.7.61,2.82,2.82,0,0,0,.86.29,3.19,3.19,0,0,0,1.12-.11c.34-.11.67-.22,1-.35a7.29,7.29,0,0,0,.93-.46l0,0v-.22l-.12,0-.76.22a6,6,0,0,1-.76.19l-.74.14a3.28,3.28,0,0,1-.56,0,2.77,2.77,0,0,1-.5-.1,2.44,2.44,0,0,1-.77-.61,5.51,5.51,0,0,1-.59-.83c-.17-.29-.35-.58-.55-.86a1.45,1.45,0,0,0-.81-.56h0l-.65.07h0a2.8,2.8,0,0,0-.6.39,1.39,1.39,0,0,0-.21.21c.28-.75.58-1.49.88-2.22s.74-1.72,1.13-2.57.82-1.67,1.29-2.47v-.22l-.31.09,0,0A23.76,23.76,0,0,0,30.69,33c-.54,1.14-1,2.3-1.5,3.44s-.91,2.33-1.34,3.54l0,.05.27.37Z"/><path class="cls-1" d="M37.88,48l0,0a1.93,1.93,0,0,0-.67-.34,4.4,4.4,0,0,0-.74-.12h-1.2a9.55,9.55,0,0,0-1.2.07l-1.13.15h-.27l-.27-1.15c0-.19,0-.4,0-.6a1.65,1.65,0,0,1,.15-.56v0l-.08-.42-1.63,1.43,0,0v.27l1.22-.86L32,46a4.29,4.29,0,0,0,0,.95,3.68,3.68,0,0,0,.19.84A12.33,12.33,0,0,0,31,48l-1.32.24c-.44.08-.87.17-1.27.27h-.05L28,47.65a.47.47,0,0,1,.05-.34,1.18,1.18,0,0,1,.52-.27,4.51,4.51,0,0,1,.65,0h.1v-.23h-.1a5.37,5.37,0,0,0-.7,0,1.86,1.86,0,0,0-.66.19h0l-.2.33,0,0a1.44,1.44,0,0,0,.06.66,3.19,3.19,0,0,0,.24.54l-1.44.27.06.3.23.11,1.17-.15h.25A17.69,17.69,0,0,0,29.39,51c.46.63.94,1.25,1.43,1.85s1,1.2,1.53,1.77l1.85,1.78-.52-.77c-.53-.78-1.09-1.54-1.68-2.25S30.83,52,30.25,51.21A26.72,26.72,0,0,1,28.66,49l3.57-.62h.21l.36.52a3.73,3.73,0,0,0,.82.7,5.56,5.56,0,0,0,.87.46,3.31,3.31,0,0,0,1,.24,4.32,4.32,0,0,0,.73-.06,2.89,2.89,0,0,0,.67-.2,2.12,2.12,0,0,0,1-.83,1.64,1.64,0,0,0,.2-.56A1.08,1.08,0,0,0,37.88,48Zm-.4.52v.16a1.65,1.65,0,0,1-.33.46,2.43,2.43,0,0,1-.48.38l-.75.25a2.88,2.88,0,0,1-.78,0,3.48,3.48,0,0,1-.71-.21l-.58-.34a3.84,3.84,0,0,1-.91-.88L35,48h.81a4.65,4.65,0,0,1,.75.06,4.51,4.51,0,0,1,.68.16Z"/><path class="cls-1" d="M41.69,97a21,21,0,0,1,2,.89A21.53,21.53,0,0,1,45.6,99a11.7,11.7,0,0,1,1.77,1.46l.07.07h.86l.5-.64v-.06a3.5,3.5,0,0,0-.26-2l0-.07a5,5,0,0,0-2-1.26c-.66-.21-1.39-.4-2.17-.57a6.69,6.69,0,0,0-2.74.25l-.23.08.2.69Z"/><path class="cls-1" d="M22.29,98.62l.09,0a10.53,10.53,0,0,0,2.18,0,8.17,8.17,0,0,0,1.89-.46h0l-.09,3.88.1.59-.22,7.51c-.2-.6-.41-1.19-.62-1.75a8.76,8.76,0,0,0-1.2-2.24l-.91-.51-1.62.56L21,108.05l0,.1a6.74,6.74,0,0,0,.23,2.41c.21.69.44,1.38.69,2.06s.5,1.35.77,2.06a23.1,23.1,0,0,1,1.11,2.23,4.93,4.93,0,0,0,1.7,2l.09.06,1.64-.34.42-.83c.42.27.86.56,1.33.84a4.36,4.36,0,0,0,1.81.65h0c.34,0,.68,0,1,0a11,11,0,0,0,2.15-.22,18,18,0,0,0,2.92-.9,10.68,10.68,0,0,0,2.73-1.62,6.91,6.91,0,0,0,1.5-1.75,6.26,6.26,0,0,0,.76-2.16c.11-.75.22-1.5.32-2.29a10.32,10.32,0,0,0-.13-1.6,9.84,9.84,0,0,0-.37-1.6L41,105.28l.15,2a7.07,7.07,0,0,1-.21,2.35c-.21.78-.44,1.56-.68,2.31a7.09,7.09,0,0,1-1,2,6.92,6.92,0,0,1-2.15,1.63,23.73,23.73,0,0,1-2.48,1,12.21,12.21,0,0,1-2.61.57,6.74,6.74,0,0,1-1.63-.19,3.5,3.5,0,0,1-1.31-.61l-.81-1.26.14-3.45v-9.05l-.29-4V97.41l1.19-.82a7.8,7.8,0,0,0,1.74-2.22,7.53,7.53,0,0,0,.73-5.24A11.51,11.51,0,0,0,31,86.59c-.35-.48-.69-1-1-1.54a2.92,2.92,0,0,0-1.49-1.28l-.06,0-.8.12-.06.07a3.67,3.67,0,0,0-.81,1.91c-.08.67-.17,1.32-.27,2V95.7c-.53.23-1.08.44-1.64.64s-1.26.39-1.9.55a2.78,2.78,0,0,1-1.76-.31l-.28-.82H20.5l-.26.45.28,1.48Zm2.85,13.08c.26.86.55,1.7.86,2.5l-.24,2h0a14.55,14.55,0,0,1-1.33-2c-.45-.82-.87-1.65-1.24-2.47a19.31,19.31,0,0,1-.93-2.54,2.41,2.41,0,0,1,.8-2.34l.33.06a5.82,5.82,0,0,1,1.06,2.22C24.65,110,24.88,110.83,25.14,111.7Zm5.32-21.26c-.13.57-.27,1.11-.43,1.61-.31.48-.64,1-1,1.45a4.2,4.2,0,0,1-1,1l-.2-2.38V86.93a5.45,5.45,0,0,1,.42-2.14l.23.07a4.84,4.84,0,0,1,1.31,1.78,17.73,17.73,0,0,1,.71,2.13A5.22,5.22,0,0,1,30.46,90.44Z"/><path class="cls-1" d="M22.41,148.55c2.4-.34,4.79-.74,7.09-1.19s4.64-1,6.9-1.71h.05L36.37,153c-.15-.4-.31-.8-.49-1.17a7.93,7.93,0,0,0-1.08-1.71,3.55,3.55,0,0,0-2.1-1.32,3.12,3.12,0,0,0-2.27.95,4.49,4.49,0,0,0-1.35,2.53,12.74,12.74,0,0,0,1,4.88c.62,1.49,1.25,3,1.88,4.44a30.78,30.78,0,0,0,2.16,4.1L33,167.29a19.17,19.17,0,0,1-1.51,1.35,7.72,7.72,0,0,1-1.63,1l-.54.24.84.34h.06a6,6,0,0,0,2.67-.84,15.31,15.31,0,0,0,2.21-1.57l.09-.07v-.16h.21l.13-.33,1.06-.69.07-.06a7.31,7.31,0,0,0,1.24-3.39c.11-1.18.22-2.36.31-3.57s.18-2.39.25-3.58V145l0,0a16.24,16.24,0,0,0,2.33-.85A11,11,0,0,0,43,142.87a3.79,3.79,0,0,0,1.46-2.4v-.07l-.76-1.83,0-.08a8.6,8.6,0,0,0-1.36-1.11,16.43,16.43,0,0,0-1.49-.84l-.81,0,.83.83a8.47,8.47,0,0,1,1.21,1.28,5.22,5.22,0,0,1,.69,1.26l-.34.9a6.12,6.12,0,0,1-1.85,1.4,22.09,22.09,0,0,1-2.13.87h-.07c-.09-.76-.15-1.52-.2-2.27s-.13-1.66-.24-2.47a12.42,12.42,0,0,0-.58-2.35,2.54,2.54,0,0,0-1.13-1.41l-.1,0a1.88,1.88,0,0,0-1.56.46l-.09.07v.43l1.11.15a6,6,0,0,1,.53,2c.08.8.15,1.6.2,2.39s.1,1.57.17,2.28l-.09,1.35a67.15,67.15,0,0,1-6.79,1.82c-2.37.5-4.75.94-7.07,1.31a55.63,55.63,0,0,1-7.07.66l-2.8-.22a4.48,4.48,0,0,1-2.37-.9l-.28-1-.94.17,0,.19a2.13,2.13,0,0,0,.48,1.63,5.9,5.9,0,0,0,2.67,1.35,25.58,25.58,0,0,0,3,.47A50,50,0,0,0,22.41,148.55Zm13.17,9.79c0,1,0,1.93,0,2.9a8,8,0,0,1-.51,2.59,22.3,22.3,0,0,1-1.9-3.07c-.61-1.18-1.22-2.42-1.8-3.67a16.25,16.25,0,0,1-1.24-3.78l.23-1.53a4,4,0,0,1,1.54-1.57l1,.29a7.48,7.48,0,0,1,1.42,2.31,23.07,23.07,0,0,1,.79,2.68C35.23,156.4,35.42,157.37,35.58,158.34Z"/><path class="cls-1" d="M54.76,190.87a6.24,6.24,0,0,0-2.24-2.08l-.07,0-1.34.2.57,2.07a4.19,4.19,0,0,0,1.2,1.56l.09,0a2.13,2.13,0,0,0,.53.08,1.32,1.32,0,0,0,1.28-1l0-.8Z"/><path class="cls-1" d="M48.76,189.27l-.08,0-.93.18-.26.44,0,.11c.17.52.34,1,.52,1.59a4.94,4.94,0,0,0,.79,1.51l.05.06.7.27h.68l.78-.78v-1.05l0-.06A6,6,0,0,0,48.76,189.27Z"/><path class="cls-1" d="M33,214.19c-.4.76-.84,1.53-1.31,2.31a6.1,6.1,0,0,1-1.7,1.84,2.74,2.74,0,0,1-2-.57,9.61,9.61,0,0,1-2.55-3.9c-.5-1.48-.94-3-1.31-4.5a25.47,25.47,0,0,1-.7-4.7,25.88,25.88,0,0,1,.26-3.67,12.38,12.38,0,0,1,1-3.3,13.51,13.51,0,0,1,1.82-2.87,15.82,15.82,0,0,1,2.37-2.11,4.86,4.86,0,0,1,2.67-.88,7.59,7.59,0,0,0,3-.7,4.47,4.47,0,0,0,1.86-1.34l.06-.11a1.09,1.09,0,0,0-.63-1.3l-.09,0a5.61,5.61,0,0,0-2.63.41c-.77.33-1.52.66-2.27,1a5.83,5.83,0,0,1-2.39.48H26a11.41,11.41,0,0,1-2.32-.23,6.67,6.67,0,0,1-2-.82l-.81-1.14-.79.29.56,1.74.06.1a6.13,6.13,0,0,0,2.11,1.38,10.77,10.77,0,0,0,2.37.62,10.9,10.9,0,0,0,1.91.11l-.23.27A17.63,17.63,0,0,0,24,195.9a12.8,12.8,0,0,0-1.66,3.83,20.08,20.08,0,0,0-.62,4.21,32.16,32.16,0,0,0,.44,5.34,35.35,35.35,0,0,0,1.25,5,15.74,15.74,0,0,0,2.48,4.58,5.4,5.4,0,0,0,2.66,1.59h0a4.74,4.74,0,0,0,.75.06,4.29,4.29,0,0,0,2.95-1.13A33.3,33.3,0,0,0,36,213.05c1-2.26,1.9-4.55,2.65-6.81s1.45-4.54,2.1-6.77v-1.59l-6.48,14C33.84,212.64,33.43,213.43,33,214.19Z"/><path class="cls-1" d="M44.66,201a14.23,14.23,0,0,1-1.41-4.29,17.63,17.63,0,0,0-1.36-4.51l-.07-.15h-1v.25a32.56,32.56,0,0,0,.27,4.23,37.6,37.6,0,0,0,.77,4.08,11.43,11.43,0,0,0,1.64,3.74l2.16,1.34,1.21-.15-.15-.31C46.09,203.78,45.38,202.36,44.66,201Z"/><path class="cls-2" d="M3.45,221a1.31,1.31,0,0,1-.35-.46c-.05-.23-.08-.46-.11-.68s0-.47,0-.71v-.75l0-1.11a1,1,0,0,1-.62-.19l-.07-.42c.08-.29.15-.56.22-.83L2.7,215a4.17,4.17,0,0,0,.09-.88H2.72l-1.37,1.27h-.2l-.27-.27v-.35a14.64,14.64,0,0,1,.85-2c.33-.65.67-1.29,1-1.91a10,10,0,0,1,1.3-1.78l.31-.12.15.12v.23c-.34.51-.67,1-1,1.53s-.61,1-.88,1.57-.52,1.08-.75,1.65H2a2.21,2.21,0,0,1,.48-.37.88.88,0,0,1,.56-.09l.22.27,0,.56q0,.39-.12.75L3,216c0,.25-.1.48-.16.71a.56.56,0,0,1,.5.15,1.52,1.52,0,0,1,.15.69v.76l0,1.31,0,.27H3.6l1-3.34h0v.07c0,.49-.11,1-.17,1.46l-.21,1.48a4.83,4.83,0,0,1-.43,1.38A.6.6,0,0,1,3.45,221Zm.41-5.24-.14-.08v-.15c.48-.1,1-.22,1.47-.35l1.49-.35A2.81,2.81,0,0,0,8,214.13a1.79,1.79,0,0,0,.37-.69,3.5,3.5,0,0,0,.09-.8l-.12-.85H8.11a2.43,2.43,0,0,1-.51.1l-.56,0-.23-.12-.07-.22a4.1,4.1,0,0,1,.71-.18,2.26,2.26,0,0,0,.7-.25V211l-.53-1.42.1-.19.24-.08a6.46,6.46,0,0,0,.69.26l.7.23a2.25,2.25,0,0,1,.67.35.58.58,0,0,1,.16.5l-.24.42a2.34,2.34,0,0,1-.49.33,3,3,0,0,1-.54.21v.22a2.72,2.72,0,0,1,.08.63v.64l-.3.88H8.8a7.56,7.56,0,0,1,1.43-.5q.75-.19,1.5-.36a14.73,14.73,0,0,1,1.55-.26l.22.16.08.37a1.18,1.18,0,0,1-.54.47l-2.17.68v0l.64-.53h-.23a13.81,13.81,0,0,0-2.42.76,13.16,13.16,0,0,1-2.46.76A14.22,14.22,0,0,1,3.86,215.77Zm3.86,4.63-.22-.16a4.11,4.11,0,0,0-.37-1,5,5,0,0,1-.38-1,3.58,3.58,0,0,1-.09-1.09,1.18,1.18,0,0,1,.38-.61,1,1,0,0,1,.8-.27l.08.2a.89.89,0,0,0-.69.42l-.12.53a4.12,4.12,0,0,0,.2.65c.08.2.16.41.26.62l.12,0a5.3,5.3,0,0,1,.19-.61,3.52,3.52,0,0,1,.28-.59A2.17,2.17,0,0,1,8.6,217a5.8,5.8,0,0,1,.75-.46l.8-.38A2,2,0,0,1,11,216l.26.31v.3a3.82,3.82,0,0,1-.4.87c-.17.27-.33.54-.48.82h.23l.88-.08.27.27v.31a1.22,1.22,0,0,1-.57.49l-.88.27v-.07l.22-.49h-.07l-.81.07-.26-.24,0-.22A1.88,1.88,0,0,1,9.7,218a6.64,6.64,0,0,0,.38-.6,5.83,5.83,0,0,0,.32-.6h-.07a7.65,7.65,0,0,1-.88.34,1.68,1.68,0,0,0-1.12,1.16,5,5,0,0,0-.16.69,4.62,4.62,0,0,0-.06.74l.07.39a.47.47,0,0,1-.29.31Zm1.42-9.71.19-.12v-.08l-.83-.31v.08l.22.58h.15Z"/><path class="cls-3" d="M8,206H6.4a6.41,6.41,0,0,0-6.4,6.4v4.9a6.41,6.41,0,0,0,6.4,6.4H8a6.41,6.41,0,0,0,6.4-6.4v-4.9A6.41,6.41,0,0,0,8,206Zm0,16.8H6.4a5.51,5.51,0,0,1-5.51-5.5v-4.9a5.51,5.51,0,0,1,5.51-5.5H8a5.51,5.51,0,0,1,5.5,5.5v4.9A5.51,5.51,0,0,1,8,222.83Z"/></g></g></svg>