<?xml version="1.0" encoding="UTF-8"?><svg xmlns="http://www.w3.org/2000/svg" viewBox="0 0 1412.04 158.5"><defs><style>.d{fill:none;stroke:#fff5f0;stroke-miterlimit:10;}</style></defs><g id="a"/><g id="b"><g id="c"><g><path class="d" d="M46.18,89.78h-.01v.03l-4.05,15.91c-.2,.81-.36,1.68-.48,2.63-.13,.95-.19,1.75-.19,2.4,0,2.5,1,4.75,3,6.75s5.07,3,9.22,3c3.55,0,6.69-.85,9.42-2.55,2.72-1.7,5.22-4.36,7.5-7.99,2.27-3.62,4.51-8.31,6.71-14.06l-2.78-.98c-2.15,5.21-4.16,9.37-6.03,12.49-1.88,3.13-3.77,5.4-5.67,6.83-1.9,1.42-3.9,2.13-6,2.13-1.7,0-2.55-.9-2.55-2.7,0-.39,.03-.83,.08-1.31,.05-.47,.12-.94,.22-1.39l16.43-60.97h-14.7l-5.68,22.33s-.01,.04-.02,.06m-4.42,17.39h-.01v.03c-1.16,2.38-2.39,4.72-3.71,7.03-2.52,4.42-5.29,8.42-8.29,12-3,3.57-6.12,6.41-9.37,8.51s-6.55,3.15-9.9,3.15c-4.7,0-8.18-1.03-10.43-3.08-2.25-2.04-3.53-4.78-3.86-8.21-.33-3.42,.06-7.21,1.16-11.36L13.32,52.92H3.5v-2.92H28.85l-12.3,46.35c-1.05,3.9-1.79,7.29-2.21,10.16-.43,2.88-.27,5.1,.48,6.68,.75,1.57,2.3,2.36,4.65,2.36,2.15,0,4.73-1.28,7.73-3.83s6.06-5.97,9.19-10.27c3.12-4.3,6.01-9.17,8.66-14.63,2.28-4.67,4.12-9.49,5.55-14.43,.01-.02,.01-.04,.02-.06"/><path class="d" d="M109.44,79.08l7.08-29.08h-24.6v2.92h9.75l-16.05,66.08h14.1l5.38-22.1s.01-.01,0-.02c.01-.04,.02-.07,.03-.11m44.57-19.15c1.93-4.4,4.1-8.54,6.5-12.4,3.1-4.99,6.53-9.02,10.31-12.07,3.77-3.05,7.79-4.58,12.04-4.58,4.5,0,7.8,1.04,9.9,3.12,2.1,2.07,3.25,4.81,3.45,8.21,.19,3.4-.28,7.12-1.43,11.17l-11.47,39.75c-.15,.5-.27,1.02-.34,1.54-.08,.53-.11,1.01-.11,1.46,0,.75,.23,1.38,.71,1.88,.47,.5,1.14,.75,1.99,.75,2,0,3.93-.7,5.81-2.1,1.87-1.4,3.77-3.68,5.7-6.83,1.92-3.15,3.94-7.35,6.04-12.6l2.85,.98c-2.25,5.85-4.52,10.57-6.79,14.17-2.28,3.6-4.79,6.24-7.54,7.92-2.75,1.67-6.02,2.51-9.82,2.51-4.2,0-7.22-.95-9.04-2.85-1.83-1.9-2.74-4.35-2.74-7.35,0-1.1,.12-2.18,.38-3.23,.25-1.05,.47-1.99,.67-2.85l9.15-31.42c1.9-6.4,2.86-11.26,2.89-14.59,.02-3.32-1.36-4.99-4.16-4.99-2.65,0-5.43,1.29-8.33,3.87-2.9,2.57-5.76,6.05-8.59,10.42-2.82,4.38-5.39,9.29-7.68,14.74-2.22,5.25-4.06,10.64-5.53,16.17m-35.08-19.34c2.18-4.96,4.66-9.57,7.42-13.86,3.22-4.99,6.76-9.02,10.61-12.07s7.93-4.58,12.23-4.58,7.16,1.04,9.18,3.12c2.03,2.07,3.2,4.81,3.53,8.21,.32,3.4-.04,7.12-1.09,11.17l-1.62,6.55m-44.6,19.28s.01-.01,0-.02c.01-.04,.02-.07,.03-.11,1.42-4.95,3.15-9.8,5.2-14.52,2.38-5.45,5.02-10.36,7.92-14.74,2.9-4.37,5.83-7.86,8.81-10.46,2.97-2.6,5.78-3.9,8.44-3.9,2.8,0,4.11,1.65,3.93,4.95-.17,3.3-1.06,8.2-2.66,14.7l-11.4,46.2h14.03l5.1-20.5,.02-.08"/><path class="d" d="M287.37,19.81c-2.6-5.07-6.18-8.81-10.73-11.21s-9.65-3.6-15.3-3.6-11.35,1.31-16.8,3.94c-5.45,2.62-10.35,6.15-14.7,10.57-4.35,4.43-7.8,9.4-10.35,14.93-2.55,5.52-3.82,11.21-3.82,17.06,0,5.25,.7,9.69,2.1,13.31,1.4,3.63,3.29,6.56,5.66,8.81,2.38,2.25,5.05,3.89,8.03,4.92,2.97,1.02,6.03,1.53,9.18,1.53,4.15,0,7.93-.81,11.33-2.43,3.4-1.63,6.44-3.84,9.11-6.64,2.68-2.8,4.99-5.94,6.94-9.41,1.81-3.23,3.33-6.57,4.55-10.03-.29,1.64-.64,3.3-1.06,5-1.43,5.78-3.48,11.57-6.15,17.36-2.68,5.81-5.88,11.33-9.6,16.58-3.73,5.25-7.87,9.93-12.42,14.02-4.55,4.11-9.47,7.34-14.77,9.72-5.3,2.37-10.85,3.56-16.65,3.56v2.7c8.75,0,17.09-1.73,25.01-5.18,7.93-3.45,15.19-8.07,21.79-13.87,6.6-5.8,12.32-12.25,17.17-19.35s8.63-14.35,11.33-21.75c2.7-7.4,4.05-14.37,4.05-20.93,0-7.99-1.3-14.53-3.9-19.61Zm-18.3,33.38c-1.65,4.02-3.69,7.72-6.11,11.1-2.43,3.37-5.19,6.1-8.29,8.17-3.1,2.08-6.58,3.11-10.43,3.11s-6.6-1.91-8.4-5.73c-1.8-3.83-2.7-9.36-2.7-16.62,0-3.64,.47-7.53,1.39-11.66,.93-4.12,2.23-8.16,3.9-12.11,1.68-3.95,3.65-7.55,5.93-10.8,2.27-3.25,4.8-5.85,7.57-7.8,2.78-1.95,5.74-2.93,8.89-2.93,2.95,0,5.41,.94,7.39,2.82,1.97,1.87,3.45,4.49,4.42,7.83,.98,3.35,1.46,7.2,1.46,11.55l-.16,3.52c-.18,2.3-.55,4.78-1.11,7.43-.85,4.05-2.1,8.09-3.75,12.12Z"/><path class="d" d="M358.69,37.66c-.65,2.98-1.57,5.78-2.77,8.4-1.2,2.63-2.67,4.97-4.39,7.01-1.73,2.06-3.66,3.64-5.81,4.77-2.15,1.12-4.53,1.68-7.13,1.68-3.1,0-5.46-.93-7.09-2.81-1.62-1.87-2.75-4.22-3.37-7.05-.63-2.82-.94-5.71-.94-8.66s.34-6.14,1.01-9.26c.68-3.13,1.63-6.12,2.85-8.97,1.23-2.85,2.69-5.38,4.39-7.61,1.7-2.22,3.63-3.98,5.78-5.29,2.15-1.3,4.45-1.95,6.9-1.95,3.15,0,5.56,1.14,7.23,3.42,1.68,2.27,2.82,5,3.42,8.17,.6,3.18,.9,6.19,.9,9.04,0,3.1-.33,6.14-.98,9.11Zm-7.95,56.1c-.65,3.13-1.61,6.11-2.89,8.96-1.27,2.85-2.82,5.39-4.65,7.62-1.82,2.22-3.92,3.98-6.3,5.28-2.37,1.31-4.98,1.95-7.83,1.95-3.6,0-6.54-.94-8.82-2.85-2.27-1.9-3.96-4.43-5.06-7.61-1.1-3.17-1.65-6.71-1.65-10.61,0-3.05,.33-6.14,.98-9.26,.65-3.13,1.61-6.1,2.88-8.93,1.28-2.82,2.83-5.35,4.65-7.57,1.83-2.23,3.93-3.98,6.3-5.25,2.38-1.28,4.99-1.92,7.84-1.92,3.6,0,6.55,.93,8.85,2.78,2.3,1.85,3.99,4.35,5.06,7.5,1.08,3.15,1.62,6.7,1.62,10.65,0,3.05-.33,6.14-.98,9.26Zm-6.08-32.13c6.62,.83,11.92,2.68,15.91,5.54,5.65,4.05,8.47,9.83,8.47,17.33,0,6-1.45,11.75-4.35,17.25s-7.26,10-13.09,13.5c-5.82,3.5-13.11,5.25-21.86,5.25-10.85,0-19.1-2.12-24.75-6.38-5.65-4.24-8.47-10.12-8.47-17.62,0-6,1.43-11.69,4.31-17.06,2.87-5.38,7.22-9.78,13.05-13.2,4.63-2.73,10.18-4.37,16.66-4.92m14.12,.31c3.09-.38,6.06-1.07,8.89-2.07,4.63-1.62,8.7-3.9,12.23-6.82,3.52-2.93,6.27-6.34,8.25-10.24,1.97-3.9,2.96-8.12,2.96-12.68,0-4-1.1-7.9-3.3-11.7-2.2-3.79-5.44-6.93-9.71-9.41-4.28-2.47-9.54-3.71-15.79-3.71-5.45,0-10.5,.97-15.15,2.92s-8.7,4.61-12.15,7.95c-3.45,3.36-6.14,7.13-8.06,11.33-1.93,4.2-2.89,8.55-2.89,13.05,0,4,1.14,7.65,3.41,10.95,2.28,3.3,5.55,5.92,9.83,7.87,2.21,1.01,4.66,1.76,7.36,2.25"/><path class="d" d="M399.92,96.88s0,0,0,.02l-5.38,22.1h-14.1l16.05-66.08h-9.75v-2.92h24.6l-7.08,29.08m40.25-1.44c1.94-4.41,4.12-8.55,6.51-12.42,3.1-4.99,6.53-9.02,10.31-12.07,3.77-3.05,7.79-4.58,12.04-4.58,4.5,0,7.8,1.04,9.9,3.12,2.1,2.07,3.25,4.81,3.45,8.21s-.28,7.12-1.43,11.17l-11.47,39.75c-.15,.5-.27,1.02-.34,1.54-.08,.53-.11,1.01-.11,1.46,0,.75,.23,1.38,.71,1.88,.47,.5,1.14,.75,1.99,.75,2,0,3.93-.7,5.81-2.1,1.87-1.4,3.77-3.68,5.7-6.83,1.92-3.15,3.94-7.35,6.04-12.6l2.85,.98c-2.25,5.85-4.52,10.57-6.79,14.17-2.28,3.6-4.79,6.24-7.54,7.92-2.75,1.67-6.02,2.51-9.82,2.51-4.2,0-7.22-.95-9.04-2.85-1.83-1.9-2.74-4.35-2.74-7.35,0-1.1,.13-2.18,.38-3.23s.47-1.99,.67-2.85l9.15-31.42c1.9-6.4,2.86-11.26,2.89-14.59,.02-3.32-1.36-4.99-4.16-4.99-2.65,0-5.43,1.29-8.33,3.87-2.9,2.57-5.76,6.05-8.59,10.42-2.82,4.38-5.38,9.29-7.68,14.74-2.23,5.28-4.08,10.69-5.55,16.25m-35.06-19.42c2.18-4.96,4.66-9.57,7.42-13.86,3.22-4.99,6.76-9.02,10.61-12.07s7.93-4.58,12.23-4.58,7.16,1.04,9.18,3.12c2.03,2.07,3.2,4.81,3.53,8.21,.32,3.4-.04,7.12-1.09,11.17l-1.63,6.57m-44.59,19.26s.01-.01,0-.02c1.42-4.99,3.16-9.87,5.23-14.63,2.38-5.45,5.02-10.36,7.92-14.74,2.9-4.37,5.83-7.86,8.81-10.46,2.97-2.6,5.79-3.9,8.44-3.9,2.8,0,4.11,1.65,3.93,4.95-.17,3.3-1.06,8.2-2.66,14.7l-11.4,46.2h14.03l5.1-20.5"/><path class="d" d="M557.34,112.87c1.25-1.82,2.47-3.65,3.66-5.5,3.88-6,7.3-11.82,10.28-17.47,2.97-5.65,5.3-10.7,6.97-15.15,1.68-4.45,2.51-7.92,2.51-10.43,0-.72-.04-1.44-.14-2.15-.1,.2-.21,.39-.34,.58-.93,1.4-2.17,2.5-3.72,3.3s-3.22,1.2-5.02,1.2c-3.25,0-5.79-.94-7.61-2.81-1.83-1.88-2.74-4.06-2.74-6.57s.95-4.73,2.85-6.56c1.9-1.82,4.32-2.74,7.27-2.74,3.15,0,5.65,.86,7.5,2.55,1.85,1.7,3.16,3.77,3.94,6.19,.78,2.43,1.16,4.72,1.16,6.86,0,2.81-.86,6.57-2.58,11.29-1.73,4.73-4.12,10-7.17,15.83-3.05,5.82-6.57,11.82-10.57,18-4,6.17-8.29,12.15-12.86,17.92-4.58,5.78-9.27,10.99-14.07,15.64s-9.53,8.34-14.21,11.06c-4.67,2.73-9.04,4.09-13.09,4.09-3.5,0-6.53-.71-9.11-2.14-2.57-1.42-4.55-3.4-5.92-5.92-1.38-2.53-2.07-5.44-2.07-8.74,0-1.85,.42-3.6,1.24-5.25,.83-1.65,1.99-2.98,3.49-3.97,1.5-1.01,3.27-1.5,5.32-1.5,1.4,0,2.82,.31,4.24,.93,1.43,.63,2.61,1.59,3.56,2.89s1.43,2.97,1.43,5.02c0,2.7-.86,4.89-2.59,6.57-1.72,1.67-3.69,2.51-5.89,2.51-1.45,0-3.01-.28-4.68-.83-.85-.28-1.63-.62-2.35-1.03,.23,.75,.53,1.46,.88,2.12,1.1,2.08,2.69,3.66,4.77,4.76,2.07,1.1,4.58,1.65,7.53,1.65,3.8,0,7.92-1.33,12.34-4.01,4.43-2.67,8.93-6.3,13.5-10.87,4.18-4.18,8.29-8.8,12.33-13.87m0,0c-1.39-2.62-2.78-5.56-4.15-8.82-1.78-4.2-3.49-8.67-5.14-13.43-1.65-4.75-3.23-9.49-4.73-14.25-1.5-4.75-2.88-9.27-4.16-13.57-1.27-4.3-2.41-8.11-3.41-11.44-1-3.32-1.85-5.89-2.55-7.69-.3-.79-.76-1.54-1.39-2.25-.62-.7-1.71-1.05-3.26-1.05-2,0-4.06,1.08-6.19,3.23-2.12,2.15-4.16,5.88-6.11,11.17l-2.85-1.2c1.65-4.5,3.47-8.1,5.47-10.8s4.27-4.65,6.79-5.85c2.53-1.2,5.41-1.8,8.66-1.8,4.65,0,8.09,1.23,10.32,3.68,2.22,2.45,3.86,5.58,4.91,9.37,1,3.36,2.11,7.33,3.34,11.93,1.22,4.6,2.6,9.39,4.12,14.36,1.53,4.98,3.24,9.82,5.14,14.51,1.55,3.84,3.26,7.32,5.15,10.45"/><path class="d" d="M663.52,91.77c-2.27,3.75-4.83,6.74-7.68,8.97-2.85,2.22-5.78,3.33-8.78,3.33-2.05,0-3.72-.73-5.02-2.21-1.3-1.47-2.24-3.41-2.82-5.81-.57-2.4-.86-5-.86-7.8,0-4.9,.63-9.93,1.88-15.08,1.25-5.14,2.93-9.9,5.06-14.25,2.12-4.35,4.5-7.87,7.13-10.57,2.62-2.7,5.28-4.05,7.98-4.05,2.55,0,4.55,.75,6,2.25,1.45,1.5,2.5,3.39,3.15,5.66,.65,2.28,1.05,4.55,1.2,6.83,.15,2.27,.23,4.21,.23,5.81,0,4.85-.68,9.61-2.03,14.29-1.35,4.67-3.16,8.88-5.44,12.63Zm9.81-30.84l4.63-19.93h15.6l-11.7,47.32c-.2,.86-.47,1.97-.82,3.34-.35,1.38-.6,2.83-.75,4.35-.15,1.53-.08,2.96,.22,4.31s.99,2.47,2.06,3.34c1.08,.88,2.69,1.31,4.84,1.31,4.65,0,8.96-1.26,12.94-3.78,3.97-2.53,7.44-5.98,10.39-10.35,2.95-4.38,5.23-9.31,6.86-14.82,1.62-5.49,2.44-11.22,2.44-17.17,0-6.6-1.04-13.16-3.11-19.69-2.08-6.52-5.27-12.49-9.57-17.89s-9.76-9.72-16.39-12.97c-6.62-3.25-14.48-4.88-23.58-4.88-8.4,0-16.42,1.46-24.04,4.35-7.63,2.9-14.63,6.96-21,12.15-6.38,5.21-11.91,11.32-16.61,18.34-4.7,7.03-8.34,14.7-10.92,23.03-2.57,8.32-3.86,17.01-3.86,26.06,0,11.3,1.45,20.82,4.35,28.57s6.81,13.99,11.74,18.72c4.92,4.72,10.46,8.16,16.61,10.31s12.45,3.22,18.9,3.22c8,0,15.19-.77,21.56-2.32,6.38-1.55,12.12-3.9,17.22-7.05s9.82-7.18,14.17-12.07l1.95,1.87c-6.3,7.35-13.96,12.94-22.99,16.76-9.02,3.83-19.66,5.74-31.91,5.74-6.85,0-13.52-1.12-20.02-3.37s-12.37-5.87-17.59-10.84c-5.23-4.98-9.38-11.54-12.45-19.69s-4.61-18.1-4.61-29.85c0-9.4,1.33-18.41,4.01-27.04,2.67-8.62,6.45-16.56,11.32-23.81,4.88-7.25,10.63-13.58,17.25-18.98,6.63-5.4,13.92-9.58,21.87-12.56,7.95-2.97,16.32-4.46,25.12-4.46,9.5,0,17.74,1.72,24.72,5.17,6.97,3.45,12.73,8.03,17.28,13.73s7.94,11.99,10.16,18.86c2.23,6.88,3.34,13.74,3.34,20.59,0,6.05-.86,12.03-2.59,17.92-1.72,5.9-4.28,11.27-7.68,16.09-3.4,4.83-7.6,8.68-12.6,11.55-5,2.88-10.78,4.31-17.33,4.31-3.7,0-6.69-.64-8.96-1.95-2.28-1.29-3.99-3.01-5.14-5.13-1.15-2.13-1.82-4.44-2.02-6.94-.1-1.26-.11-2.49-.01-3.69m0,0c-.68,1.25-1.4,2.47-2.17,3.65-2.75,4.23-5.9,7.58-9.45,10.05-3.55,2.48-7.25,3.71-11.1,3.71-4.3,0-8.1-.96-11.4-2.88-3.3-1.93-5.86-4.7-7.69-8.33-1.82-3.62-2.73-7.93-2.73-12.94s.97-10.51,2.92-15.78c1.95-5.28,4.6-10.1,7.95-14.48,3.35-4.37,7.14-7.87,11.36-10.5,4.23-2.62,8.62-3.94,13.17-3.94,3.2,0,5.85,.73,7.95,2.18s3.72,3.39,4.87,5.81c1.15,2.43,1.96,5.14,2.44,8.14,.27,1.73,.47,3.48,.58,5.23"/><path class="d" d="M786.56,69.5c-.7,2.75-1.66,5.45-2.89,8.1-1.22,2.65-2.65,5.07-4.27,7.27-1.63,2.21-3.36,3.95-5.21,5.25-1.85,1.31-3.73,1.95-5.63,1.95-2.95,0-5.1-1-6.45-3-1.35-1.99-2.02-4.47-2.02-7.42,0-2.4,.34-4.96,1.05-7.69,.7-2.72,1.66-5.41,2.88-8.06,1.23-2.65,2.65-5.06,4.28-7.24,1.62-2.17,3.36-3.91,5.21-5.21,1.85-1.3,3.73-1.95,5.63-1.95,2.95,0,5.1,.99,6.45,2.96,1.35,1.98,2.02,4.44,2.02,7.39,0,2.35-.35,4.9-1.05,7.65Zm4.2,69.94c-2.1,3.07-5.01,5.76-8.74,8.06-3.72,2.3-8.02,4.07-12.9,5.32-4.87,1.25-10.06,1.88-15.56,1.88-5.95,0-10.41-1.38-13.39-4.13-2.97-2.75-4.46-6.47-4.46-11.17,0-3.3,.68-6.36,2.03-9.19,1.35-2.82,3.28-5.22,5.81-7.2,1.15-.9,2.4-1.66,3.77-2.27,2.27,.44,4.75,.66,7.44,.66h28.95c3.05,0,5.51,.61,7.39,1.84,1.87,1.22,2.81,3.28,2.81,6.18,0,3.6-1.05,6.94-3.15,10.02Zm-34.19-48.04c-3.36,.34-6.04,1.33-8.07,2.96-2.58,2.08-3.86,4.24-3.86,6.49s.75,3.81,2.25,4.99c1.5,1.17,3.37,1.98,5.62,2.43s4.53,.68,6.83,.68c1.75,0,3.88-.01,6.41-.04,2.52-.02,5.01-.05,7.46-.07,2.45-.03,4.38-.04,5.78-.04,5.8,0,10.62,1.19,14.47,3.56,3.85,2.38,5.78,6.69,5.78,12.94,0,5.45-1.35,10.22-4.05,14.32s-6.28,7.52-10.73,10.24c-4.45,2.73-9.35,4.76-14.7,6.12-5.35,1.34-10.67,2.02-15.97,2.02-7.25,0-13.08-.83-17.48-2.48s-7.57-3.87-9.52-6.67-2.93-5.88-2.93-9.23c0-2.9,.85-5.58,2.55-8.06,1.7-2.47,3.88-4.65,6.53-6.52,2.65-1.88,5.38-3.34,8.21-4.39,.9-.33,1.77-.62,2.61-.84-.25-.07-.5-.16-.74-.25-3.32-1.22-5.9-2.93-7.72-5.14-1.83-2.19-2.74-4.77-2.74-7.72,0-2.5,.7-4.81,2.1-6.94,1.4-2.12,3.34-3.96,5.81-5.51,2.48-1.55,5.34-2.75,8.59-3.6,1.66-.43,3.38-.76,5.16-.97m43.24-30.55c1.67-2.16,3.45-3.84,5.34-5.04,1.92-1.23,3.94-1.84,6.04-1.84,1.4,0,2.7,.35,3.9,1.05s2.02,1.72,2.47,3.07c-.65-1.05-1.44-1.87-2.36-2.47-.93-.6-1.91-1-2.96-1.2-1.55,.35-2.84,1.11-3.87,2.29-1.02,1.17-1.53,2.61-1.53,4.31,0,2.3,.77,4.1,2.32,5.4s3.33,1.95,5.33,1.95c2.35,0,4.21-.81,5.58-2.44,1.38-1.62,2.07-3.56,2.07-5.81,0-2.7-.92-4.9-2.74-6.6-1.83-1.7-4.14-2.55-6.94-2.55-3.9,0-7.47,1.38-10.72,4.12-1.18,1-2.32,2.18-3.41,3.55m1.48,2.21c1.74,3.05,2.6,6.59,2.6,10.59,0,4.76-1.39,9.04-4.16,12.87-2.78,3.82-6.44,6.85-10.99,9.07-4.55,2.23-9.48,3.34-14.77,3.34-4.3,0-8.15-.83-11.55-2.48-.7-.34-1.38-.71-2.02-1.12m-2.35-1.72c-1.42-1.2-2.64-2.61-3.66-4.21-1.95-3.04-2.92-6.69-2.92-10.95,0-4.8,1.38-9.16,4.16-13.08,2.77-3.93,6.45-7.05,11.02-9.38,4.58-2.32,9.52-3.49,14.82-3.49,4.24,0,8.07,.88,11.47,2.63,2.78,1.43,5.08,3.34,6.87,5.72"/><path class="d" d="M843.62,96.88s0,0,0,.02l-5.38,22.1h-14.1l16.05-66.08h-9.75v-2.92h24.6l-7.07,29.03m40.23-1.38c1.94-4.42,4.11-8.56,6.51-12.43,3.1-4.99,6.54-9.02,10.31-12.07,3.78-3.05,7.79-4.58,12.04-4.58,4.5,0,7.8,1.04,9.9,3.12,2.1,2.07,3.25,4.81,3.45,8.21s-.27,7.12-1.42,11.17l-11.48,39.75c-.15,.5-.26,1.02-.34,1.54-.07,.53-.11,1.01-.11,1.46,0,.75,.24,1.38,.71,1.88,.48,.5,1.14,.75,1.99,.75,2,0,3.94-.7,5.81-2.1,1.88-1.4,3.78-3.68,5.7-6.83,1.93-3.15,3.94-7.35,6.04-12.6l2.85,.98c-2.25,5.85-4.51,10.57-6.79,14.17-2.27,3.6-4.78,6.24-7.53,7.92-2.75,1.67-6.03,2.51-9.83,2.51-4.2,0-7.21-.95-9.04-2.85-1.82-1.9-2.73-4.35-2.73-7.35,0-1.1,.12-2.18,.37-3.23s.48-1.99,.68-2.85l9.15-31.42c1.9-6.4,2.86-11.26,2.88-14.59,.03-3.32-1.36-4.99-4.16-4.99-2.65,0-5.43,1.29-8.32,3.87-2.91,2.57-5.77,6.05-8.59,10.42-2.83,4.38-5.39,9.29-7.69,14.74-2.2,5.21-4.03,10.56-5.5,16.05m-35.09-19.27c2.18-4.94,4.65-9.54,7.4-13.81,3.23-4.99,6.77-9.02,10.62-12.07s7.92-4.58,12.22-4.58,7.16,1.04,9.19,3.12c2.02,2.07,3.2,4.81,3.52,8.21,.33,3.4-.03,7.12-1.08,11.17l-1.64,6.58m-44.58,19.25s.01-.01,0-.02c1.41-4.99,3.15-9.87,5.23-14.63,2.37-5.45,5.01-10.36,7.91-14.74,2.9-4.37,5.84-7.86,8.81-10.46,2.98-2.6,5.79-3.9,8.44-3.9,2.8,0,4.11,1.65,3.94,4.95-.18,3.3-1.07,8.2-2.66,14.7l-11.4,46.2h14.02l5.15-20.7"/><path class="d" d="M986.28,104.9c-2.2,3.25-4.55,5.84-7.05,7.76-2.5,1.93-5.05,2.89-7.65,2.89-2.8,0-4.98-1.13-6.56-3.38-1.57-2.25-2.36-5.55-2.36-9.9,0-3.75,.5-7.84,1.5-12.3,1-4.44,2.35-8.83,4.05-13.16,1.7-4.32,3.65-8.27,5.85-11.85,2.2-3.57,4.51-6.45,6.94-8.62,2.42-2.18,4.83-3.27,7.23-3.27,2.2,0,3.98,.68,5.33,2.03,1.35,1.35,2.35,3.25,3,5.7,.65,2.45,.97,5.32,.97,8.62,0,3.9-.47,7.98-1.42,12.23-.95,4.25-2.28,8.38-3.98,12.37-1.7,4.01-3.65,7.63-5.85,10.88Zm13.45-39.76l3.65-15.14h14.78l-16.28,61.12c-.2,.8-.3,1.61-.3,2.4s.22,1.49,.64,2.07c.43,.57,1.16,.86,2.21,.86,2.05,0,4-.72,5.85-2.18,1.85-1.45,3.73-3.73,5.63-6.86,1.9-3.12,3.87-7.28,5.92-12.49l2.93,.98c-2.25,5.75-4.51,10.44-6.79,14.06-2.27,3.63-4.74,6.29-7.39,7.99s-5.7,2.55-9.15,2.55c-3.8,0-6.58-.98-8.36-2.93-1.77-1.95-2.66-4.52-2.66-7.72,0-.9,.02-1.69,.07-2.36,.05-.68,.13-1.26,.23-1.77l.81-4.47m0,0c-.15,.31-.31,.61-.47,.91-1.88,3.53-4,6.67-6.38,9.41-2.37,2.75-4.94,4.93-7.69,6.53s-5.7,2.4-8.85,2.4c-6.6,0-11.43-2.2-14.51-6.6-3.07-4.4-4.61-10.32-4.61-17.78,0-5.74,1.09-11.43,3.26-17.06,2.18-5.62,5.06-10.73,8.66-15.34,3.6-4.59,7.55-8.28,11.85-11.06,4.3-2.77,8.63-4.16,12.98-4.16,3.5,0,6.29,.94,8.36,2.81,2.08,1.88,3.56,4.4,4.46,7.58,.56,1.96,.94,4.04,1.15,6.25"/><path class="d" d="M1071.82,10.66c-.93-1.52-2.15-2.74-3.68-3.64-1.52-.9-3.21-1.35-5.06-1.35s-3.53,.45-5.06,1.35c-1.53,.9-2.73,2.12-3.6,3.64-.87,1.53-1.31,3.22-1.31,5.06s.44,3.48,1.31,5.03c.87,1.55,2.07,2.79,3.6,3.71,1.53,.93,3.21,1.39,5.06,1.39s3.54-.46,5.06-1.39c1.53-.92,2.75-2.16,3.68-3.71,.92-1.55,1.39-3.23,1.39-5.03s-.47-3.53-1.39-5.06Zm-5.66,84.26c-2.15,5.21-4.16,9.38-6.04,12.53-1.87,3.15-3.74,5.44-5.59,6.86-1.85,1.43-3.8,2.14-5.85,2.14-1.05,0-1.77-.3-2.17-.9-.4-.6-.6-1.3-.6-2.1,0-.35,.02-.74,.07-1.16,.05-.43,.13-.84,.23-1.24l17.1-61.05h-25.5v2.92h10.8l-14.85,52.58c-.2,.8-.39,1.65-.56,2.55-.18,.9-.27,1.83-.27,2.77,0,2.91,.96,5.24,2.89,7.02,1.92,1.77,4.96,2.66,9.11,2.66,3.8,0,7.06-.85,9.79-2.55,2.72-1.7,5.22-4.36,7.5-7.99,2.27-3.62,4.54-8.31,6.79-14.06l-2.85-.98Z"/><path class="d" d="M1103.39,107.41c-1.87,3.13-3.76,5.41-5.66,6.86-1.9,1.46-3.85,2.18-5.85,2.18-1.85,0-2.77-.95-2.77-2.85,0-.35,.02-.75,.07-1.2,.05-.45,.12-.9,.23-1.35l28.2-104.55h-28.5v2.92h13.72l-25.87,96.08c-.2,.65-.38,1.41-.53,2.29-.15,.87-.22,1.88-.22,3.03,0,2.85,.98,5.18,2.96,6.98,1.97,1.8,5.04,2.7,9.19,2.7,3.65,0,6.85-.85,9.6-2.55,2.75-1.7,5.26-4.36,7.53-7.99,2.28-3.62,4.52-8.31,6.72-14.06l-2.85-.98c-2.1,5.21-4.09,9.37-5.97,12.49Z"/><path class="d" d="M1138.08,105.05c-.9-1.55-2.13-2.79-3.67-3.71-1.56-.93-3.28-1.39-5.18-1.39s-3.63,.46-5.17,1.39c-1.55,.92-2.8,2.16-3.75,3.71-.96,1.55-1.43,3.27-1.43,5.17s.47,3.57,1.43,5.14c.95,1.58,2.2,2.83,3.75,3.75,1.54,.93,3.27,1.39,5.17,1.39s3.62-.46,5.18-1.39c1.54-.92,2.77-2.16,3.67-3.71,.9-1.55,1.35-3.27,1.35-5.18s-.45-3.62-1.35-5.17Z"/><path class="d" d="M1200.93,58.7c-1.6,1.6-2.4,3.58-2.4,5.92,0,2.81,.87,4.87,2.62,6.19,1.75,1.33,3.68,1.99,5.78,1.99,2.45,0,4.5-.85,6.15-2.55,1.65-1.7,2.47-4,2.47-6.9,0-2.15-.82-4.36-2.47-6.64-1.65-2.27-3.99-4.21-7.01-5.81-3.03-1.6-6.64-2.4-10.84-2.4-5.55,0-10.79,1.4-15.71,4.2-4.93,2.8-9.33,6.54-13.2,11.21-3.88,4.68-6.92,9.86-9.12,15.56-2.2,5.7-3.3,11.45-3.3,17.25,0,7.1,1.97,12.84,5.89,17.22,3.93,4.37,9.59,6.56,16.99,6.56,5,0,9.52-.98,13.57-2.93,4.05-1.95,7.62-4.51,10.69-7.68,3.08-3.18,5.64-6.61,7.69-10.32l-2.7-1.57c-2.1,3.5-4.54,6.66-7.31,9.49-2.78,2.82-5.84,5.05-9.19,6.67-3.35,1.63-7,2.44-10.95,2.44-3.55,0-6.34-1.11-8.36-3.34-2.03-2.22-3.04-5.36-3.04-9.41,0-3.75,.47-7.95,1.42-12.6,.95-4.65,2.3-9.26,4.05-13.84,1.75-4.57,3.85-8.78,6.3-12.64,2.45-3.85,5.19-6.93,8.22-9.26,3.02-2.32,6.26-3.49,9.71-3.49,2.85,0,5.46,.59,7.84,1.77,1.55,.76,2.9,1.65,4.05,2.67-.72-.11-1.46-.16-2.22-.16-2.15,0-4.02,.8-5.62,2.4Z"/><path class="d" d="M1280.69,55.29c-3.88-4.53-9.69-6.79-17.44-6.79-5.45,0-10.66,1.29-15.64,3.86-4.97,2.58-9.4,6.09-13.27,10.54-3.88,4.45-6.93,9.58-9.15,15.37-2.23,5.81-3.34,11.93-3.34,18.38,0,7,1.91,12.73,5.74,17.17,3.83,4.46,9.61,6.68,17.36,6.68,5.55,0,10.83-1.28,15.83-3.83s9.42-6.04,13.27-10.5c3.85-4.44,6.89-9.56,9.12-15.33,2.22-5.78,3.33-11.89,3.33-18.34,0-6.95-1.94-12.69-5.81-17.21Zm-7.99,18.71c-.75,4.1-1.8,8.21-3.15,12.34-1.35,4.12-2.95,8.06-4.8,11.81-1.85,3.75-3.87,7.09-6.07,10.01-2.2,2.93-4.52,5.23-6.94,6.9-2.43,1.68-4.91,2.51-7.46,2.51-3.4,0-5.9-.97-7.5-2.92-1.6-1.95-2.4-4.62-2.4-8.03,0-3.6,.37-7.45,1.12-11.55,.75-4.09,1.8-8.22,3.15-12.37,1.35-4.15,2.95-8.09,4.8-11.81,1.85-3.73,3.88-7.05,6.08-9.98,2.2-2.92,4.51-5.22,6.94-6.9,2.42-1.67,4.91-2.51,7.46-2.51,3.35,0,5.83,.97,7.46,2.92,1.62,1.95,2.44,4.63,2.44,8.03,0,3.6-.38,7.45-1.13,11.55Z"/><path class="d" d="M1314.83,96.88s0,0,0,.02l-5.38,22.1h-14.1l16.05-66.08h-9.75v-2.92h24.6l-7.08,29.08m40.25-1.44c1.94-4.41,4.12-8.55,6.51-12.42,3.1-4.99,6.53-9.02,10.31-12.07,3.77-3.05,7.79-4.58,12.04-4.58,4.5,0,7.8,1.04,9.9,3.12,2.1,2.07,3.25,4.81,3.45,8.21s-.28,7.12-1.43,11.17l-11.47,39.75c-.15,.5-.26,1.02-.34,1.54-.08,.53-.11,1.01-.11,1.46,0,.75,.23,1.38,.71,1.88,.47,.5,1.14,.75,1.99,.75,2,0,3.94-.7,5.81-2.1,1.88-1.4,3.77-3.68,5.7-6.83,1.92-3.15,3.94-7.35,6.04-12.6l2.85,.98c-2.25,5.85-4.52,10.57-6.79,14.17-2.28,3.6-4.79,6.24-7.54,7.92-2.75,1.67-6.02,2.51-9.82,2.51-4.2,0-7.22-.95-9.04-2.85-1.83-1.9-2.74-4.35-2.74-7.35,0-1.1,.13-2.18,.38-3.23s.47-1.99,.67-2.85l9.15-31.42c1.9-6.4,2.86-11.26,2.89-14.59,.02-3.32-1.36-4.99-4.16-4.99-2.65,0-5.43,1.29-8.33,3.87-2.9,2.57-5.76,6.05-8.58,10.42-2.83,4.38-5.39,9.29-7.69,14.74-2.23,5.28-4.08,10.69-5.55,16.25m-35.06-19.42c2.18-4.96,4.66-9.57,7.42-13.86,3.22-4.99,6.76-9.02,10.61-12.07s7.93-4.58,12.23-4.58,7.16,1.04,9.18,3.12c2.03,2.07,3.2,4.81,3.53,8.21,.32,3.4-.04,7.12-1.09,11.17l-1.63,6.57m-44.59,19.26s.01-.01,0-.02c1.42-4.99,3.16-9.87,5.23-14.63,2.38-5.45,5.02-10.36,7.92-14.74,2.9-4.37,5.83-7.86,8.81-10.46,2.97-2.6,5.79-3.9,8.44-3.9,2.8,0,4.11,1.65,3.94,4.95-.18,3.3-1.07,8.2-2.67,14.7l-11.4,46.2h14.03l5.1-20.5"/></g></g></g></svg>