<?xml version="1.0" encoding="UTF-8"?><svg xmlns="http://www.w3.org/2000/svg" viewBox="0 0 1565.84 799.76"><defs><style>.d{fill:none;stroke:#fff5f0;stroke-linecap:round;stroke-linejoin:round;stroke-width:2px;}</style></defs><g id="a"/><g id="b"><g id="c"><g><path class="d" d="M700.75,1L433.45,483.4,354.7,1H136.45V9.25h66.03S65.3,670.07,65.3,670.25H1v9.75H148.6v-9.75H73.85L209.85,10.25l111.65,674.75h11.05L702.12,7.25l-127.13,661h-66.74v12h818.45l46.8-202.75-6.02-.25c-9,40-36,78-60,104-23.52,25.48-49.41,43.7-79.56,58.7-30.15,15-66.44,29.3-107.87,32.3h-103.57l80-339h38c16.1-.45,36.69,6.16,49,15,12.3,8.85,16,9,28,36,6.9,15.53,15,38.9,15,59l6.62,.05,50.85-220.5-7.47,.45c-9,20.1-25.92,47.98-42,61-21,17-32.9,22.75-50,31-17.1,8.26-36.9,11-54,11h-31L1166.48,11.25h112.62c45.38,1,73.38,4,103.38,23,23.91,15.14,33,26,42,60,7.01,26.47,4.99,62.9,2,95l4.62,.25L1475.3,1.25l-774.55-.25Zm179.73,671.25h-169L851.05,11.25h174.43l-145,661Z"/><path class="d" d="M1555.54,605.65c-6.2-11.24-14.52-19.78-24.93-25.63-10.42-5.85-21.95-8.78-34.59-8.78s-23.82,2.98-34.23,8.95c-10.42,5.97-18.67,13.93-24.76,23.88-6.09,9.96-9.13,20.54-9.13,31.78,0,16.85,5.8,31.13,17.38,42.84,11.59,11.7,28.03,17.56,49.33,17.56,10.3,0,20.77-2.05,31.43-6.15,10.65-4.09,22.71-10.67,29.97-18.63-4.68,19.51-4.68,18.73-14.04,35.89-9.61,17.62-24.97,32.77-40.57,46.82-15.33,13.8-34.96,23.64-54.62,30.43-19.66,6.79-41.9,10.92-60.86,10.92l-.15,3.24c21.54,0,42.89-3.69,64.08-11.06,21.18-7.37,40.43-17.91,57.76-31.6,17.32-13.69,31.2-29.85,41.61-48.46,10.41-18.61,15.62-39.03,15.62-61.27,0-15.92-3.11-29.49-9.3-40.73Z"/></g></g></g></svg>