<?xml version="1.0" encoding="UTF-8"?><svg xmlns="http://www.w3.org/2000/svg" viewBox="0 0 272.08 978.45"><defs><style>.d{stroke:#000;stroke-miterlimit:10;}</style></defs><g id="a"/><g id="b"><g id="c"><g><path class="d" d="M2.08,.63L76.98,17.78v6.83l-20.12,.88c-5.37,1.51-10.27,3.09-14.7,4.72-4.44,1.63-8.69,3.5-12.78,5.6L2.08,6.58V.63ZM.5,94.6c0-13.65,1.99-25.23,5.95-34.74,3.96-9.51,9.45-17.24,16.45-23.19,7-5.95,15.14-10.41,24.41-13.39,9.28-2.98,19.16-4.81,29.66-5.51v6.83c-9.57,.58-18.52,2.13-26.86,4.64-8.34,2.51-15.69,6.36-22.05,11.55-6.36,5.19-11.35,12.01-14.96,20.47-3.62,8.46-5.42,18.81-5.42,31.06s2.28,23.39,6.82,33.43c4.55,10.03,10.94,18.02,19.16,23.98,8.23,5.95,17.94,8.92,29.14,8.92,10.26,0,18.84-1.96,25.73-5.86,6.88-3.91,12.69-9.04,17.41-15.4,4.73-6.36,8.95-13.36,12.69-21,3.73-7.64,7.55-15.25,11.46-22.84,3.91-7.58,8.46-14.58,13.65-21,5.19-6.42,11.55-11.55,19.07-15.4,7.53-3.85,16.89-5.77,28.09-5.77,13.41,0,25.14,2.74,35.17,8.23,10.03,5.48,18.43,12.6,25.2,21.35,6.76,8.75,11.84,18.05,15.22,27.91,3.38,9.86,5.08,19.16,5.08,27.91,0,14.93-2.98,27.59-8.92,37.98-5.95,10.38-14.44,18.38-25.46,23.98-11.02,5.6-24.18,8.69-39.46,9.27v-6.83c13.88-.58,25.78-3.27,35.7-8.05,9.91-4.79,17.53-11.73,22.84-20.83,5.31-9.1,7.96-20.3,7.96-33.6,0-8.87-1.98-17.59-5.95-26.16-3.97-8.58-9.45-15.64-16.45-21.18-7-5.54-15.23-8.31-24.67-8.31s-16.62,1.95-22.58,5.86c-5.95,3.91-11.02,9.07-15.23,15.49-4.2,6.42-8.05,13.48-11.55,21.17-3.5,7.7-7.32,15.4-11.46,23.1-4.14,7.7-9.19,14.76-15.14,21.18-5.95,6.41-13.42,11.58-22.4,15.49-8.99,3.91-20.12,5.86-33.43,5.86-12.13,0-23.39-2.54-33.77-7.61-10.39-5.08-19.4-12.1-27.04-21.09-7.64-8.99-13.56-19.28-17.76-30.89C2.6,120,.5,107.67,.5,94.6Zm197.23,106.57l16.1,1.05c5.71-1.29,11.17-2.83,16.36-4.64,5.19-1.81,10.65-4.29,16.36-7.44l25.02,28.17v5.95l-73.85-16.27v-6.83Z"/><path class="d" d="M5.58,194.7h6.82v99.75H5.58v-99.75Zm0,29.75l262.5,59.5v39.02L5.58,263.3v-38.85Zm255.67,28h6.83v100.8h-6.83v-100.8Zm-179.72,1.4l186.2,181.48v9.8L81.53,263.83v-9.98ZM5.58,356.93l134.05-43.92,29.75,30.62L5.58,401.55v-44.62Zm0-39.9h6.82v113.23H5.58v-113.23Zm255.67,72.62h6.83v84h-6.83v-84Z"/><path class="d" d="M5.58,438.3h6.82v117.95H5.58v-117.95Zm0,38.5l262.5,59.5v39.02L5.58,515.82v-39.02Zm255.67,19.25h6.83v117.95h-6.83v-117.95Z"/><path class="d" d="M5.58,564.47h6.82v119.17c0,18.31,2.92,32.84,8.75,43.58,5.83,10.73,14.12,19.08,24.85,25.02,10.73,5.95,23.51,10.85,38.33,14.7v7l-78.75-18.2v-191.27Zm0,29.75l262.5,60.9v39.03L5.58,633.25v-39.02Zm255.67,29.4h6.83v102.03h-6.83v-102.03Z"/><path class="d" d="M5.58,768.34h6.82v119.17c0,18.31,2.92,32.84,8.75,43.58,5.83,10.73,14.12,19.08,24.85,25.02,10.73,5.95,23.51,10.85,38.33,14.7v7l-78.75-18.2v-191.27Zm0,29.75l262.5,60.9v39.03L5.58,837.12v-39.02Zm255.67,29.4h6.83v102.03h-6.83v-102.03Z"/></g></g></g></svg>