<?xml version="1.0" encoding="UTF-8"?><svg xmlns="http://www.w3.org/2000/svg" viewBox="0 0 1749.58 648.01"><defs><style>.d{fill:none;stroke:#fff5f0;stroke-linecap:round;stroke-linejoin:round;stroke-width:2px;}</style></defs><g id="a"/><g id="b"><g id="c"><g><path class="d" d="M343.2,301.09L317.83,17.58m113.29,203.79l-17.7-203.79m135.2,0l-117.5,203.79M566.89,17.58l-133.38,231.33M548.62,17.58h-135.2M576.45,1h62.9V17.58h-72.46m-389.77,0l43.18,497.25,122.9-213.74M317.83,17.58H177.12M577.55,1H1V17.58H78.13m0,0l56.32,629.43h28.48l182.74-318.33m87.84-79.77l23.09,265.92L743.27,17.58M345.67,328.68l28.48,318.33h25.08L761.97,17.58m11.08-16.58h68.6V17.58h-79.68m-18.7,0h-64.39V1h94.67"/><path class="d" d="M737.52,647.01c-43.92,0-76.71-12.6-98.39-37.83-21.67-25.21-32.51-57.65-32.51-97.32,0-36.55,6.3-71.25,18.91-104.12,12.6-32.87,29.89-61.9,51.85-87.12,21.95-25.21,47.03-45.12,75.23-59.71,28.19-14.59,57.73-21.89,88.61-21.89,43.91,0,76.85,12.82,98.81,38.46,21.95,25.65,32.94,58.16,32.94,97.54,0,36.55-6.31,71.19-18.91,103.91-12.61,32.72-29.82,61.7-51.64,86.91-21.82,25.22-46.9,45.05-75.23,59.5-28.33,14.45-58.22,21.68-89.67,21.68Zm-3.83-16.58c14.45,0,28.54-4.74,42.29-14.24,13.74-9.49,26.84-22.53,39.31-39.1,12.46-16.58,23.94-35.49,34.42-56.74,10.48-21.25,19.55-43.56,27.2-66.94,7.65-23.38,13.6-46.68,17.85-69.91,4.25-23.23,6.38-45.05,6.38-65.45,0-19.26-4.61-34.42-13.81-45.47-9.21-11.05-23.31-16.58-42.29-16.58-14.45,0-28.55,4.75-42.29,14.24-13.75,9.5-26.85,22.53-39.31,39.1-12.47,16.58-23.95,35.42-34.42,56.52-10.49,21.11-19.55,43.42-27.2,66.94-7.65,23.52-13.6,46.9-17.85,70.12-4.25,23.24-6.38,45.05-6.38,65.45,0,19.27,4.53,34.42,13.6,45.47,9.06,11.05,23.23,16.57,42.5,16.57Z"/><path class="d" d="M1161.57,377.06c1.56-3.68,3.15-7.34,4.77-10.98,10.48-23.51,22.17-44.84,35.07-63.96,12.89-19.13,26.91-34.35,42.07-45.69,15.15-11.33,31.24-17,48.24-17,18.41,0,33.08,5.17,43.99,15.51,10.9,10.35,16.36,23.31,16.36,38.89,0,14.74-4.33,27.2-12.96,37.4-8.65,10.2-20.34,15.3-35.07,15.3-13.6,0-25.01-4.25-34.21-12.75-9.21-8.5-13.81-19.4-13.81-32.73s4.39-24.36,13.17-33.15c6.52-6.51,14.76-10.61,24.72-12.3-.58-.01-1.17-.02-1.77-.02-15.87,0-30.81,5.52-44.84,16.57-14.02,11.05-27.13,25.86-39.31,44.42-12.18,18.56-23.31,39.03-33.36,61.41-10.06,22.38-18.91,45.12-26.56,68.21-5.48,16.56-10.31,32.35-14.48,47.37l-.03,.09m.03-.09l-.03,.09-34.79,144.86h-79.05l93.5-374.43h-65.45v-16.58h144.92l-31.12,129.56"/><path class="d" d="M1471.23,440.22c-.59,1.26-1.14,2.54-1.66,3.85-4.05,10.22-7.53,19.83-10.42,28.88,0,.01-.01,.03-.01,.04m20.21-46.49c3.41-4.62,7.38-8.89,11.9-12.82,9.77-8.5,24.01-12.75,42.71-12.75,3.87,0,7.42,.29,10.63,.87m25.3-10.38c4.33,1.25,8.5,2.79,12.52,4.62,12.75,5.81,23.23,14.6,31.45,26.35,8.21,11.76,13.45,26.64,15.72,44.63,2.27,17.99,1.28,39.31-2.97,63.96l-14.03,66.72c-.28,1.7-.49,3.48-.63,5.32-.15,1.84-.22,3.18-.22,4.03,0,9.08,5.38,13.6,16.15,13.6s21.32-4.17,32.52-12.53c11.19-8.36,22.45-21.53,33.78-39.53,11.33-17.99,22.81-41.29,34.43-69.91l16.15,5.95c-18.42,47.88-38.96,83.59-61.63,107.1-22.67,23.52-50.01,35.28-82.02,35.28-20.12,0-35.42-4.97-45.9-14.88-10.49-9.91-15.73-24.08-15.73-42.5,0-3.96,.36-8.35,1.07-13.18,.7-4.81,1.62-9.2,2.76-13.17l11.47-45.05c2.55-10.76,5.6-22.88,9.14-36.34,3.54-13.45,5.74-26.28,6.59-38.46,.85-12.18-1.42-22.31-6.8-30.39-1.12-1.67-2.44-3.18-3.95-4.5m-84.58,6.07c8.38-10.24,17.56-17.21,27.54-20.91,11.48-4.25,23.73-6.37,36.76-6.37,4.56,0,8.99,.24,13.29,.73m-73.42,38.44c1.81,1.23,3.8,2.27,5.95,3.12,4.67,1.84,10.55,2.76,17.63,2.76,10.77,0,20.47-4.74,29.12-14.24,4.3-4.73,8.49-10.17,12.54-16.34m-85.42,71.09s-.01,.04-.02,.06c0,.01-.01,.03-.01,.04l-45.46,165.52h-76.92L1503.36,17.58h-75.23V1h160.65l-113.6,413.61m-3.95,25.61c3.26,1.94,7.1,3.65,11.52,5.12,6.37,2.13,13.1,3.19,20.18,3.19,14.45,0,27.2-5.59,38.25-16.79,6.57-6.66,12.77-14.39,18.58-23.2m-6.99-20.48c1.25-2.29,2.49-4.66,3.71-7.11,7.65-15.3,15.16-31.72,22.53-49.3,12.46-28.9,26.84-51.49,43.14-67.78,16.29-16.29,36.61-24.44,60.98-24.44,12.75,0,24.08,2.76,34,8.29,9.92,5.52,17.64,13.17,23.17,22.95,5.52,9.77,8.28,20.9,8.28,33.36,0,15.87-4.82,28.41-14.45,37.61-9.63,9.21-20.54,13.81-32.72,13.81s-23.59-4.03-32.51-12.11c-8.93-8.07-13.39-19.33-13.39-33.79,0-12.46,4.25-22.8,12.75-31.02,8.5-8.21,18.55-12.33,30.17-12.33,6.23,0,13.18,1.43,20.83,4.25,.23,.08,.45,.17,.67,.26-2.97-3.52-6.52-6.58-10.66-9.18-7.22-4.53-16.22-6.8-26.99-6.8-18.42,0-34.57,6.8-48.45,20.4s-26.35,33.57-37.4,59.92c-7.93,18.71-16.36,36.7-25.28,53.98-.41,.8-.83,1.6-1.26,2.39"/></g></g></g></svg>